<?xml version="1.0" standalone="no"?>
<!DOCTYPE svg PUBLIC "-//W3C//DTD SVG 20010904//EN"
 "http://www.w3.org/TR/2001/REC-SVG-20010904/DTD/svg10.dtd">
<svg version="1.0" xmlns="http://www.w3.org/2000/svg"
 width="269.000000pt" height="269.000000pt" viewBox="0 0 269.000000 269.000000"
 preserveAspectRatio="xMidYMid meet">
<metadata>
Created by potrace 1.14, written by Peter Selinger 2001-2017
</metadata>
<g transform="translate(0.000000,269.000000) scale(0.100000,-0.100000)"
fill="#000000" stroke="none">
<path d="M460 2249 c-28 -12 -76 -54 -93 -84 -8 -14 -14 -124 -17 -345 l-5
-325 -76 -40 c-180 -97 -259 -180 -259 -273 0 -84 78 -148 225 -183 50 -12 96
-23 103 -25 9 -3 12 -71 12 -299 0 -321 0 -324 57 -377 15 -15 41 -32 56 -37
18 -7 152 -11 367 -11 l338 0 5 22 c3 13 40 183 82 378 72 331 86 382 100 368
3 -3 42 -169 86 -369 44 -200 82 -372 85 -382 5 -17 27 -18 358 -15 l352 3 41
27 c77 51 78 57 78 453 l0 350 -177 40 c-98 21 -178 42 -178 45 1 3 62 25 137
50 254 83 463 202 523 297 56 87 33 180 -55 230 -42 24 -143 57 -206 68 l-37
6 -4 152 c-4 176 -16 212 -81 255 l-41 27 -352 3 -353 3 -7 -28 c-4 -15 -28
-121 -53 -236 -30 -134 -52 -212 -61 -217 -8 -4 -40 -11 -72 -15 -49 -6 -57
-5 -62 11 -6 21 -106 471 -106 479 0 10 -685 4 -710 -6z m1905 -548 c131 -27
205 -60 205 -93 0 -19 -93 -100 -154 -135 l-56 -32 0 104 0 104 -47 7 c-134
22 -585 1 -848 -39 l-80 -12 -17 -69 c-10 -38 -19 -70 -21 -72 -2 -2 -9 25
-16 61 -8 41 -18 65 -27 65 -23 0 -304 -60 -404 -86 -133 -34 -330 -96 -330
-103 0 -3 131 -35 290 -70 160 -35 289 -65 287 -67 -1 -2 -174 -41 -383 -88
l-381 -84 -70 13 c-78 15 -138 38 -165 62 -17 15 -17 18 -2 41 133 203 956
446 1709 506 88 7 458 -3 510 -13z m-65 -288 c-138 -64 -514 -184 -579 -185
-39 0 -178 34 -161 40 31 11 756 170 775 170 11 0 -5 -11 -35 -25z"/>
</g>
</svg>
