<svg xmlns="http://www.w3.org/2000/svg" width="4270.81" height="2402.64" viewBox="0 0 4270.81 2402.64"><g id="Layer_2" data-name="Layer 2"><g id="Слой_1" data-name="Слой 1"><g id="BUILDING"><rect x="3231.13" y="1178.68" width="394.93" height="371.83" fill="#98c8db"/><path d="M2657.34,718.19V897.12H2401.57c-117.07,0-212,94.9-212,212V718.19Z" fill="#fed4c7"/><polygon points="1772.1 558.44 1590.52 718.2 1039 718.45 1039 718.2 1039.14 718.2 1220.72 558.44 1772.1 558.44" fill="#98c8db"/><path d="M4015,1852.26V2281.4H554.26V1275.31L1039,942.92V718.45h551.52v-.26l299.53-263.53,299.54,263.53v390.92c0-117.09,94.91-212,212-212s212,94.9,212,212v69.27c118.65-18.21,229.47-106.83,311.7-281.26,56.55,120,123.29,196.32,197.82,240.28a346.12,346.12,0,0,0,108,41.28v371.83l389,301.75Z" fill="#fff"/><polygon points="3231.13 1550.51 3626.06 1550.51 4015.04 1852.27 3620.11 1852.27 3231.13 1550.51" fill="#fed4c7"/><path d="M2923,510.66a83.73,83.73,0,0,0-83.73,83.73c0,46.24,83.73,171.25,83.73,171.25s83.72-125,83.72-171.25A83.73,83.73,0,0,0,2923,510.66Zm0,108.9a24.93,24.93,0,1,1,24.92-24.92A24.93,24.93,0,0,1,2923,619.56Z" fill="#f3b304"/><path d="M2925.26,897.13c-82.23,174.42-193.05,263-311.7,281.25v-69.27c0-117.08-94.91-212-212-212Z" fill="#59221d"/><line x1="3231.13" y1="897.13" x2="3231.13" y2="677.03" fill="none" stroke="#59221d" stroke-miterlimit="10" stroke-width="5"/><line x1="3142.7" y1="718.2" x2="3275.66" y2="718.2" fill="none" stroke="#59221d" stroke-miterlimit="10" stroke-width="5"/><line x1="3172.5" y1="738.62" x2="3275.66" y2="738.62" fill="none" stroke="#59221d" stroke-miterlimit="10" stroke-width="5"/><circle cx="1901.39" cy="707.7" r="79.38" fill="#fed4c7"/><circle cx="1887.49" cy="686.84" r="79.38" fill="none" stroke="#59221d" stroke-miterlimit="10" stroke-width="5"/><line x1="1887.49" y1="607.46" x2="1887.49" y2="766.22" fill="none" stroke="#59221d" stroke-miterlimit="10" stroke-width="5"/><line x1="1966.86" y1="686.84" x2="1808.11" y2="686.84" fill="none" stroke="#59221d" stroke-miterlimit="10" stroke-width="5"/><path d="M1532,435.13V604a34.17,34.17,0,0,1-34.17,34.17h0A34.17,34.17,0,0,1,1463.68,604V435.13a34.17,34.17,0,1,0,68.34,0Z" fill="none" stroke="#59221d" stroke-miterlimit="10" stroke-width="5"/><circle cx="1497.85" cy="435.13" r="34.17" fill="none" stroke="#59221d" stroke-miterlimit="10" stroke-width="5"/><polygon points="1518.11 634.42 1614.49 558.44 1532.02 558.44 1532.02 612.73 1518.11 634.42" fill="#59221d"/><rect x="1115.99" y="790.88" width="171.93" height="67.63" fill="none" stroke="#f3b304" stroke-linecap="round" stroke-miterlimit="10" stroke-width="5"/><rect x="1316.76" y="790.88" width="171.93" height="67.63" fill="none" stroke="#f3b304" stroke-linecap="round" stroke-miterlimit="10" stroke-width="5"/><rect x="1115.99" y="889.28" width="171.93" height="67.63" fill="none" stroke="#f3b304" stroke-linecap="round" stroke-miterlimit="10" stroke-width="5"/><rect x="1316.76" y="889.28" width="171.93" height="67.63" fill="#f3b304"/><path d="M2926.06,1192.68h8.88a125.85,125.85,0,0,1,125.85,125.85v554.15a0,0,0,0,1,0,0H2800.21a0,0,0,0,1,0,0V1318.53A125.85,125.85,0,0,1,2926.06,1192.68Z" fill="none" stroke="#f3b304" stroke-linecap="round" stroke-miterlimit="10" stroke-width="5"/><line x1="2930.5" y1="1192.68" x2="2930.5" y2="1872.68" fill="none" stroke="#f3b304" stroke-linecap="round" stroke-miterlimit="10" stroke-width="5"/><line x1="2800.21" y1="1329.46" x2="3060.79" y2="1329.46" fill="none" stroke="#f3b304" stroke-linecap="round" stroke-miterlimit="10" stroke-width="5"/><line x1="2800.21" y1="1465.5" x2="3060.79" y2="1465.5" fill="none" stroke="#f3b304" stroke-linecap="round" stroke-miterlimit="10" stroke-width="5"/><line x1="2800.21" y1="1601.53" x2="3060.79" y2="1601.53" fill="none" stroke="#f3b304" stroke-linecap="round" stroke-miterlimit="10" stroke-width="5"/><line x1="2800.21" y1="1737.57" x2="3060.79" y2="1737.57" fill="none" stroke="#f3b304" stroke-linecap="round" stroke-miterlimit="10" stroke-width="5"/><path d="M3626.06,1178.68H3231.13a345.69,345.69,0,0,1-108-41.28c-74.53-44-141.27-120.31-197.83-240.27h394.93C3402.87,1072.51,3507.32,1154.68,3626.06,1178.68Z" fill="#98c8db"/><polygon points="1890.06 454.66 2357.81 454.66 2657.34 718.2 2189.59 718.2 1890.06 454.66" fill="#fff" stroke="#f3b304" stroke-linejoin="round" stroke-width="5"/><line x1="2288.76" y1="454.66" x2="2588.3" y2="718.2" fill="none" stroke="#f3b304" stroke-linecap="round" stroke-miterlimit="10" stroke-width="5"/><line x1="2212.42" y1="454.66" x2="2511.96" y2="718.2" fill="none" stroke="#f3b304" stroke-linecap="round" stroke-miterlimit="10" stroke-width="5"/><line x1="2136.09" y1="454.66" x2="2435.62" y2="718.2" fill="none" stroke="#f3b304" stroke-linecap="round" stroke-miterlimit="10" stroke-width="5"/><line x1="2059.75" y1="454.66" x2="2359.28" y2="718.2" fill="none" stroke="#f3b304" stroke-linecap="round" stroke-miterlimit="10" stroke-width="5"/><line x1="1983.41" y1="454.66" x2="2282.95" y2="718.2" fill="none" stroke="#f3b304" stroke-linecap="round" stroke-miterlimit="10" stroke-width="5"/><polyline points="1590.52 718.2 1890.06 454.66 2357.81 454.66" fill="none" stroke="#f3b304" stroke-linecap="round" stroke-miterlimit="10" stroke-width="5"/><polyline points="1041.07 718.45 1041.07 942.15 554.26 1275.31 554.26 2281.4" fill="none" stroke="#f3b304" stroke-linecap="round" stroke-miterlimit="10" stroke-width="5"/></g><g id="CLOUDS"><path d="M1761.85,309.28A154,154,0,0,1,1680,288.51a81.88,81.88,0,1,1-76.73-115.89h.65a81.73,81.73,0,0,1,61.36,25.88A81.86,81.86,0,0,0,1603,160.27c0-.45,0-.88,0-1.33a154.67,154.67,0,1,1,158.88,150.34Z" fill="#fed4c7"/><circle cx="1500.72" cy="351.12" r="26.74" fill="#fed4c7"/><path d="M2566.86,332.46h972.8a42,42,0,0,0-47.44-41.58L3415.39,301a28.81,28.81,0,0,1-32.58-28.56h0a39.43,39.43,0,0,0-47.52-38.59L3234.8,255a43.29,43.29,0,0,1-52.17-42.36h0a97.22,97.22,0,0,0-97.22-97.22h0c-1.62,0-3.24,0-4.85,0-44.54.69-88.31,11.6-128.42,31Z" fill="#fed4c7"/></g><g id="PLANTS"><path d="M2800.21,2281.4h1470.6s0-474.11-427.3-483.26c-338.25-7.24-303.82,288.37-546.56,292.25C3175.06,2092.33,2800.21,1932.93,2800.21,2281.4Z" fill="#f3b304"/><path d="M4097.27,2242.44a150.23,150.23,0,0,1-5.1,38.95H3801.66a150.37,150.37,0,1,1,295.61-38.95Z" fill="#fff"/><line x1="3946.92" y1="2092.01" x2="3946.92" y2="2279.32" fill="none" stroke="#f3b304" stroke-linecap="round" stroke-miterlimit="10" stroke-width="5"/><line x1="3983.82" y1="2097.68" x2="3946.92" y2="2148.2" fill="none" stroke="#f3b304" stroke-linecap="round" stroke-miterlimit="10" stroke-width="5"/><line x1="3870.13" y1="2112.53" x2="3946.92" y2="2208.32" fill="none" stroke="#f3b304" stroke-linecap="round" stroke-miterlimit="10" stroke-width="5"/><line x1="4067.33" y1="2152.54" x2="4035.65" y2="2213.5" fill="none" stroke="#f3b304" stroke-linecap="round" stroke-miterlimit="10" stroke-width="5"/><line x1="3827.94" y1="2148.2" x2="3898.33" y2="2148.2" fill="none" stroke="#f3b304" stroke-linecap="round" stroke-miterlimit="10" stroke-width="5"/><line x1="3797.71" y1="2224.79" x2="3858.62" y2="2279.75" fill="none" stroke="#f3b304" stroke-linecap="round" stroke-miterlimit="10" stroke-width="5"/><line x1="3946.92" y1="2238.53" x2="4091.43" y2="2198.44" fill="none" stroke="#f3b304" stroke-linecap="round" stroke-miterlimit="10" stroke-width="5"/><ellipse cx="874.43" cy="1670.57" rx="240.58" ry="434.37" fill="#fed4c7"/><line x1="874.43" y1="1379.48" x2="874.43" y2="2279.32" fill="none" stroke="#59221d" stroke-linecap="round" stroke-miterlimit="10" stroke-width="5"/><path d="M920.75,1435.92c0,7.32-.56,11.44-3.64,18.08l-32,69.12a114.69,114.69,0,0,0-10.64,48.25" fill="none" stroke="#59221d" stroke-linecap="round" stroke-miterlimit="10" stroke-width="5"/><path d="M800.31,1538.82v34.63a93.07,93.07,0,0,0,26.34,64.88l21.9,22.54a91.39,91.39,0,0,1,25.88,63.73" fill="none" stroke="#59221d" stroke-linecap="round" stroke-miterlimit="10" stroke-width="5"/><path d="M946.38,1712.07v48.55a87,87,0,0,1-22.1,57.93l-31.12,34.86a73.71,73.71,0,0,0-18.73,49.09" fill="none" stroke="#59221d" stroke-linecap="round" stroke-miterlimit="10" stroke-width="5"/><path d="M773,1836.09a77.32,77.32,0,0,0,45.54,70.49l24.21,10.92a53.81,53.81,0,0,1,31.68,49" fill="none" stroke="#59221d" stroke-linecap="round" stroke-miterlimit="10" stroke-width="5"/><path d="M985.78,1647.45h24.39a0,0,0,0,1,0,0v24.39a39.77,39.77,0,0,1-39.77,39.77H946a0,0,0,0,1,0,0v-24.39A39.77,39.77,0,0,1,985.78,1647.45Z" fill="none" stroke="#59221d" stroke-linecap="round" stroke-miterlimit="10" stroke-width="5"/><path d="M960.52,1397.64h1.4a0,0,0,0,1,0,0v1.4a39.77,39.77,0,0,1-39.77,39.77h-1.4a0,0,0,0,1,0,0v-1.4A39.77,39.77,0,0,1,960.52,1397.64Z" fill="none" stroke="#59221d" stroke-linecap="round" stroke-miterlimit="10" stroke-width="5"/><path d="M936.71,1704h1.4a0,0,0,0,1,0,0v1.4a39.77,39.77,0,0,1-39.77,39.77h-1.4a0,0,0,0,1,0,0v-1.4A39.77,39.77,0,0,1,936.71,1704Z" transform="translate(-1034.12 1809.3) rotate(-64.47)" fill="#59221d"/><path d="M835.58,1464.95H837a0,0,0,0,1,0,0v1.4a39.77,39.77,0,0,1-39.77,39.77h-1.4a0,0,0,0,1,0,0v-1.4A39.77,39.77,0,0,1,835.58,1464.95Z" transform="translate(-633.39 607.22) rotate(-30)" fill="#59221d"/><path d="M939.93,1977.48h1.4a0,0,0,0,1,0,0v1.4a39.77,39.77,0,0,1-39.77,39.77h-1.4a0,0,0,0,1,0,0v-1.4A39.77,39.77,0,0,1,939.93,1977.48Z" transform="translate(792.21 -198.19) rotate(21.39)" fill="#59221d"/><path d="M856.55,1842.12H858a0,0,0,0,1,0,0v1.4a39.77,39.77,0,0,1-39.77,39.77h-1.4a0,0,0,0,1,0,0v-1.4A39.77,39.77,0,0,1,856.55,1842.12Z" transform="translate(-1204.36 1815.56) rotate(-64.47)" fill="#59221d"/><path d="M755.21,1496.82h4.62a39.77,39.77,0,0,1,39.77,39.77v4.62a0,0,0,0,1,0,0H795a39.77,39.77,0,0,1-39.77-39.77v-4.62A0,0,0,0,1,755.21,1496.82Z" transform="translate(1554.82 3038.03) rotate(-180)" fill="none" stroke="#59221d" stroke-linecap="round" stroke-miterlimit="10" stroke-width="5"/><path d="M885,1313.78h17.08a0,0,0,0,1,0,0v17.08a39.77,39.77,0,0,1-39.77,39.77H845.27a0,0,0,0,1,0,0v-17.08A39.77,39.77,0,0,1,885,1313.78Z" transform="translate(-693.18 1010.92) rotate(-45)" fill="none" stroke="#59221d" stroke-linecap="round" stroke-miterlimit="10" stroke-width="5"/><path d="M784.45,1770h17.08a0,0,0,0,1,0,0v17.08a39.77,39.77,0,0,1-39.77,39.77H744.68a0,0,0,0,1,0,0v-17.08A39.77,39.77,0,0,1,784.45,1770Z" transform="translate(-1045.26 1073.42) rotate(-45)" fill="none" stroke="#59221d" stroke-linecap="round" stroke-miterlimit="10" stroke-width="5"/><path d="M977.16,1433.53h1.4a0,0,0,0,1,0,0v1.4a39.77,39.77,0,0,1-39.77,39.77h-1.4a0,0,0,0,1,0,0v-1.4A39.77,39.77,0,0,1,977.16,1433.53Z" transform="translate(1384.46 -234.16) rotate(47.55)" fill="#59221d"/><ellipse cx="3106.65" cy="1863.4" rx="179.71" ry="274.14" fill="#fff" stroke="#59221d" stroke-linecap="round" stroke-miterlimit="10" stroke-width="5"/><line x1="3095.61" y1="1638.02" x2="3095.61" y2="2280.4" fill="none" stroke="#59221d" stroke-linecap="round" stroke-miterlimit="10" stroke-width="5"/><path d="M3144.65,1710.85a97.07,97.07,0,0,1-14.12,50.43l-24.07,39.58a74.55,74.55,0,0,0-10.85,38.74" fill="none" stroke="#59221d" stroke-linecap="round" stroke-miterlimit="10" stroke-width="5"/><path d="M3047.21,1733.39V1826a104.13,104.13,0,0,0,16.7,56.56l15.83,24.49a99,99,0,0,1,15.87,53.78" fill="none" stroke="#59221d" stroke-linecap="round" stroke-miterlimit="10" stroke-width="5"/><path d="M3144.65,1886.47v40a109.36,109.36,0,0,1-12.64,51l-29.62,56.13a58.68,58.68,0,0,0-6.78,27.37" fill="none" stroke="#59221d" stroke-linecap="round" stroke-miterlimit="10" stroke-width="5"/><path d="M3149.91,2165.48h24.39a0,0,0,0,1,0,0v24.39a39.77,39.77,0,0,1-39.77,39.77h-24.39a0,0,0,0,1,0,0v-24.39A39.77,39.77,0,0,1,3149.91,2165.48Z" fill="none" stroke="#59221d" stroke-linecap="round" stroke-miterlimit="10" stroke-width="5"/><line x1="3095.61" y1="2242.66" x2="3150.1" y2="2192.17" fill="none" stroke="#59221d" stroke-linecap="round" stroke-miterlimit="10" stroke-width="5"/><path d="M3117.61,1822.92h1.28a36.4,36.4,0,0,1,36.4,36.4v1.28a0,0,0,0,1,0,0H3154a36.4,36.4,0,0,1-36.4-36.4v-1.28A0,0,0,0,1,3117.61,1822.92Z" transform="translate(5078.66 4917.03) rotate(-152.7)" fill="#f3b304"/><path d="M3140.69,1670.56H3142a36.4,36.4,0,0,1,36.4,36.4v1.28a0,0,0,0,1,0,0h-1.28a36.4,36.4,0,0,1-36.4-36.4v-1.28A0,0,0,0,1,3140.69,1670.56Z" transform="translate(2279.17 5162.4) rotate(-103.91)" fill="#f3b304"/><path d="M3118.64,1667.43h1.28a36.4,36.4,0,0,1,36.4,36.4v1.28a0,0,0,0,1,0,0H3155a36.4,36.4,0,0,1-36.4-36.4v-1.28A0,0,0,0,1,3118.64,1667.43Z" transform="translate(5011.49 4715.37) rotate(-150)" fill="none" stroke="#59221d" stroke-linecap="round" stroke-miterlimit="10" stroke-width="5"/><path d="M3022.11,1954.9h1.28a36.4,36.4,0,0,1,36.4,36.4v1.28a0,0,0,0,1,0,0h-1.28a36.4,36.4,0,0,1-36.4-36.4v-1.28A0,0,0,0,1,3022.11,1954.9Z" transform="translate(5971.32 4108.24) rotate(-176.92)" fill="#f3b304"/><path d="M3157.2,1822.7h1.55a43.86,43.86,0,0,1,43.86,43.86v1.55a0,0,0,0,1,0,0h-1.55a43.86,43.86,0,0,1-43.86-43.86v-1.55A0,0,0,0,1,3157.2,1822.7Z" transform="translate(1641.87 5184.84) rotate(-95.4)" fill="none" stroke="#59221d" stroke-linecap="round" stroke-miterlimit="10" stroke-width="5"/><path d="M3037.05,1936.1h1.55a43.86,43.86,0,0,1,43.86,43.86v1.55a0,0,0,0,1,0,0h-1.55a43.86,43.86,0,0,1-43.86-43.86v-1.55A0,0,0,0,1,3037.05,1936.1Z" transform="translate(3838.25 5507.46) rotate(-135)" fill="none" stroke="#59221d" stroke-linecap="round" stroke-miterlimit="10" stroke-width="5"/><path d="M3010.64,1785.15V1792a20,20,0,0,0,20,20h0a16.62,16.62,0,0,1,16.62,16.62" fill="none" stroke="#59221d" stroke-linecap="round" stroke-miterlimit="10" stroke-width="5"/></g><g id="CHARACTER_ON_SCOOTER" data-name="CHARACTER ON SCOOTER"><g id="SCOOTER"><path d="M1512.71,1696.52h389.72a0,0,0,0,1,0,0v7.26a56.21,56.21,0,0,1-56.21,56.21H1463.67a0,0,0,0,1,0,0v-14.44A49,49,0,0,1,1512.71,1696.52Z" fill="#a74602"/><circle cx="2742.92" cy="2192.12" r="153.9" fill="#a74602"/><path d="M2618.62,2282.89a153.91,153.91,0,0,1,227.41-205Z" fill="#59221d"/><circle cx="2742.92" cy="2192.17" r="44.08" fill="none" stroke="#fff" stroke-miterlimit="10" stroke-width="5"/><circle cx="1337.78" cy="2192.12" r="153.9" fill="#a74602"/><path d="M1191.86,2143.07a153.93,153.93,0,0,1,299.82,49Z" fill="#59221d"/><circle cx="1337.85" cy="2192.17" r="44.08" fill="none" stroke="#fff" stroke-miterlimit="10" stroke-width="5"/><path d="M2523.48,1454.91a73.41,73.41,0,0,1-143.06,23.2l123.89-72.67A73.14,73.14,0,0,1,2523.48,1454.91Z" fill="#f3b304"/><path d="M2504.31,1405.44l-123.89,72.67a73.41,73.41,0,0,1,123.89-72.67Z" fill="#fff" stroke="#59221d" stroke-linecap="round" stroke-miterlimit="10" stroke-width="5"/><path d="M1778.86,2177V1760H1490.67c-209.05,0-383,160.71-399.45,369.11h360a172.59,172.59,0,0,1,128.38,57.25l52.37,58.29a110.75,110.75,0,0,0,82.42,36.76h720.09a160.51,160.51,0,0,0,81.2-22.06L2904.89,2031s-42.24-136.15-217.76-99.68l-300.82-492.09a61.45,61.45,0,0,0-52.41-29.39H2278v26.94h23.61a61.45,61.45,0,0,1,56,36.11L2541.29,1879c75.62,167.15-46.61,356.6-230.07,356.6H1837.43A58.57,58.57,0,0,1,1778.86,2177Z" fill="#fff" stroke="#59221d" stroke-linecap="round" stroke-miterlimit="10" stroke-width="5"/><path d="M1126.94,2128.13c16.57-102,105.1-179.93,211.81-179.93,118.52,0,214.6,96.08,214.6,214.6" fill="none" stroke="#59221d" stroke-miterlimit="10" stroke-width="5"/><path d="M2689,1930.35c-42.87,12.38-78.19,40.36-98.08,76.69" fill="none" stroke="#59221d" stroke-miterlimit="10" stroke-width="5"/><circle cx="2280.86" cy="1412.16" r="30.65" fill="#59221d"/><ellipse cx="2290.89" cy="1190.52" rx="63.64" ry="24.17" transform="translate(-29.2 2323.08) rotate(-53.48)" fill="#f3b304"/><ellipse cx="2282.69" cy="1183.6" rx="65.67" ry="24.95" transform="translate(-26.96 2313.69) rotate(-53.48)" fill="none" stroke="#59221d" stroke-linecap="round" stroke-miterlimit="10" stroke-width="5"/><path d="M2367,1419.55v-117.9a65,65,0,0,0-16.71-43.5l-66.51-73.78" fill="none" stroke="#59221d" stroke-linecap="round" stroke-miterlimit="10" stroke-width="5"/><path d="M1778.87,1760v68.31L1463.68,1761v-.07q13.38-.92,27-.91Z" fill="#59221d"/><line x1="1337.78" y1="2346.02" x2="3047.21" y2="2346.02" fill="none" stroke="#59221d" stroke-miterlimit="10" stroke-width="5"/><line x1="1922.12" y1="2400.14" x2="2904.89" y2="2400.14" fill="none" stroke="#59221d" stroke-miterlimit="10" stroke-width="5"/><g id="SMOKE"><path d="M1076.41,2192.42a177.4,177.4,0,0,0-172.9-137.65A183.7,183.7,0,0,1,739.59,1954l-49.89-98.64a234.4,234.4,0,0,0-443.56,105.79v37.29a160.35,160.35,0,0,1,132,87.25,160,160,0,0,0-125.33-60.33c-2.23,0-4.46.05-6.67.14a160.33,160.33,0,0,0,0,320.39l1067.24.14C1165.77,2346,1097.1,2282.31,1076.41,2192.42ZM225.6,2127.59a20.54,20.54,0,1,1,20.54-20.54A20.54,20.54,0,0,1,225.6,2127.59Z" fill="#98c8db"/><circle cx="36.47" cy="2305.14" r="36.47" fill="#98c8db"/></g></g><g id="CHARACTER"><g id="LEGS"><g id="RIGHT"><path d="M2293.68,2159.66c-111.15,31.22-224,10.62-253.71,4.15.1-.23.2-.47.31-.71l246.42-508v476.54A60,60,0,0,0,2293.68,2159.66Z" fill="#59221d"/><path d="M2339.16,2226.47v9.11h-254.5c-37,0-61.67-38.07-46.76-71.77,29.75,6.47,142.56,27.07,253.71-4.15h0a59.9,59.9,0,0,0,16.76,19.69l11.82,9A47.83,47.83,0,0,1,2339.16,2226.47Z" fill="#a74602" stroke="#59221d" stroke-miterlimit="10" stroke-width="5"/></g><g id="LEFT"><path d="M2271.58,1695l-215.74,445.36a35.36,35.36,0,0,0-2,25.64s-138.47,56-267.25,39.36a58.66,58.66,0,0,1-2.67-52.34l179.76-416a31.14,31.14,0,0,0-28.58-43.49h-258a162.71,162.71,0,0,1-122.51-55.64l348.47-157.31H2137.2C2247.38,1480.57,2319.61,1595.81,2271.58,1695Z" fill="#fff" stroke="#59221d" stroke-linecap="round" stroke-miterlimit="10" stroke-width="5"/><path d="M1990.36,1542.8c110.18,0,182.41,115.25,134.38,214.4L1909,2202.56" fill="none" stroke="#59221d" stroke-linecap="round" stroke-miterlimit="10" stroke-width="5" stroke-dasharray="20"/><path d="M2094.73,2235.58H1838.18a58.8,58.8,0,0,1-51.62-30.26c128.78,16.61,267.25-39.36,267.25-39.36a35.24,35.24,0,0,0,9.88,15.79l12.54,11.6A57.41,57.41,0,0,1,2094.73,2235.58Z" fill="#fff" stroke="#59221d" stroke-miterlimit="10" stroke-width="5"/></g></g><g id="HEAD"><g id="HEAD-2" data-name="HEAD"><path d="M1964.6,1023,1934,1066.41a112.16,112.16,0,0,0-63.7-19.72H1823q-3.82,0-7.63.12l66.75-60.76Z" fill="#fff" stroke="#59221d" stroke-linecap="round" stroke-miterlimit="10" stroke-width="5"/><path d="M1988.36,944.9l7.45,45.79A10.41,10.41,0,0,1,1988,1002l-.63.15a12.49,12.49,0,0,0-9.42,10.5l-2,15.22a12,12,0,0,1-13.41,10.32c-17.17-2.29-47.69-10.52-56.14-40.12-11.95-41.86,32.56-53.2,32.56-53.2Z" fill="#fff" stroke="#59221d" stroke-linecap="round" stroke-miterlimit="10" stroke-width="5"/><path d="M1950.1,960.6s9.71-5.67,18.29-5.82" fill="none" stroke="#59221d" stroke-linecap="round" stroke-miterlimit="10" stroke-width="5"/><ellipse cx="1963.13" cy="974.57" rx="3.1" ry="5.5" fill="#59221d"/><path d="M1977.63,1013.22c-11.66,0-14.13-11.34-14.13-11.34" fill="none" stroke="#59221d" stroke-linecap="round" stroke-miterlimit="10" stroke-width="5"/></g><g id="HELMET"><path d="M1876.21,980.78l-1.37-3a59.79,59.79,0,0,1,29.31-79.25l7.67-3.54a52,52,0,0,1,71.86,33.2l4.68,16.7h-37.7a18.32,18.32,0,0,0-18.32,18.32v6.1a27.47,27.47,0,0,1-27.47,27.47h-3.7A27.46,27.46,0,0,1,1876.21,980.78Z" fill="#59221d"/><path d="M1951,1046.92a7.34,7.34,0,0,1-.81-.05c-6.12-.76-19.69-4.49-31.77-13.66-14.66-11.14-21.88-26.36-20.89-44a6.5,6.5,0,0,1,13,.73c-1.78,31.78,32.65,43,41.28,44a6.5,6.5,0,0,1-.79,13Z" fill="#59221d"/><circle cx="1904.37" cy="973.06" r="16.15" fill="none" stroke="#fff" stroke-miterlimit="10" stroke-width="5"/></g><g id="HAIR"><path d="M1942.68,947.61c-7.78,1.42,16.15-8.67,33-17.67a25.26,25.26,0,0,1-1.54-8.71c0-14.65,12.37-26.52,27.62-26.52s27.63,11.87,27.63,26.52-12.37,26.51-27.63,26.51Z" fill="#f3b304"/><circle cx="2046.74" cy="919.37" r="9.72" fill="#f3b304"/></g></g><g id="HAND"><path d="M2174.1,1485.07s-251.51,138.61-386.69,47.71c0,0-128.92,87.53-232.81,105.1V1394.74c0-51.17,22.87-127.49,48-195.9A236.89,236.89,0,0,1,1825,1043.69h47.34a112.7,112.7,0,0,1,112.7,112.7V1285.6a26.81,26.81,0,0,0,31.82,26.34l150.35-28.6c-12.33,12-21.46,55.07-21.46,101.47C2145.73,1439.54,2158.43,1485.07,2174.1,1485.07Z" fill="#f3b304"/><path d="M2197.47,1384.81c0,54.73-12.7,100.26-28.37,100.26s-28.37-45.53-28.37-100.26,12.7-99.78,28.37-99.78S2197.47,1330.08,2197.47,1384.81Z" fill="#fff" stroke="#f3b304" stroke-miterlimit="10" stroke-width="5"/><path d="M2343,1331.68v98.06h-13.87a17.58,17.58,0,0,1-17.58-17.58,30.66,30.66,0,0,0-30.64-30.66h0a30.68,30.68,0,0,0-30.65,30.66,72.89,72.89,0,0,1-72.91,72.91h-3.19l-.75,0c-15.32-1.43-27.62-46.36-27.62-100.23,0-24.67,2.59-47.37,6.85-64.86h0l37.5-17.44,20.95-9.74a54.85,54.85,0,0,1,34.54-3.91l75.75,16.1A27.33,27.33,0,0,1,2343,1331.68Z" fill="#fff" stroke="#59221d" stroke-linecap="round" stroke-miterlimit="10" stroke-width="5"/><path d="M2271.91,1333.32l49.42,10.5a27.33,27.33,0,0,1,21.63,26.73v58.19" fill="none" stroke="#59221d" stroke-linecap="round" stroke-miterlimit="10" stroke-width="5"/><path d="M2202.47,1384.81c0,54.74-12.7,100.26-28.37,100.26l-.75,0c-15.32-1.43-27.62-46.36-27.62-100.23,0-24.67,2.59-47.37,6.85-64.86h0l37.5-17.44C2197.57,1320.55,2202.47,1350.81,2202.47,1384.81Z" fill="#59221d"/><path d="M1803.91,1545c-47.56-31-93.08-81.82-79.59-235.23" fill="none" stroke="#fff" stroke-linecap="round" stroke-miterlimit="10" stroke-width="5"/></g><g id="DELIVERY_BOX" data-name="DELIVERY BOX"><path d="M1800.67,1544.48c-82.52,91.8-246.07,93.4-246.07,93.4V1463.14c6.32,116.53,181.8,55.45,205.35,46.78C1771.9,1524.32,1786.55,1535.18,1800.67,1544.48Z" fill="#59221d"/><path d="M1822.91,1040.58v3.11a252.93,252.93,0,0,0-233.49,196.86l-34.82,154.19V1040.58Z" fill="#59221d"/><path d="M1554.6,1043.69v594.2h-285c-42,0-77.15-31.65-85.69-73.89a99.62,99.62,0,0,1-2-19.92V1137.49c0-.21,0-.43,0-.65a99.35,99.35,0,0,1,4.83-30.15c11.91-36.68,44.49-63,82.83-63Z" fill="#fff" stroke="#59221d" stroke-linecap="round" stroke-miterlimit="10" stroke-width="5"/><path d="M1554.6,1538.69v30.15H1183.92a87.93,87.93,0,0,1-2-18.62v-11.53Z" fill="#59221d"/><path d="M1554.6,1106.69v30.15H1182a99.35,99.35,0,0,1,4.83-30.15Z" fill="#59221d"/><rect x="1184.96" y="1146.01" width="366.54" height="5" fill="#98c8db"/><path d="M1388.42,1425V1263.67a5.76,5.76,0,0,1,5.76-5.76h0a5.76,5.76,0,0,1,5.76,5.76v67.46" fill="none" stroke="#98c8db" stroke-miterlimit="10" stroke-width="5"/><path d="M1388.42,1425h0v-93.9h25.94v49.65A50.7,50.7,0,0,1,1388.42,1425Z" fill="none" stroke="#98c8db" stroke-miterlimit="10" stroke-width="5"/><path d="M1358,1257.91l2.68,31.84a18.38,18.38,0,0,1-18.31,19.92h0a18.37,18.37,0,0,1-18.31-19.92l2.67-31.84" fill="none" stroke="#f3b304" stroke-linecap="round" stroke-miterlimit="10" stroke-width="5"/><line x1="1342.35" y1="1257.91" x2="1342.35" y2="1336.67" fill="none" stroke="#f3b304" stroke-linecap="round" stroke-miterlimit="10" stroke-width="5"/><rect x="1336.09" y="1337.94" width="12.82" height="87.09" rx="4.42" fill="none" stroke="#f3b304" stroke-linecap="round" stroke-miterlimit="10" stroke-width="5"/></g></g></g></g></g></svg>