<svg xmlns="http://www.w3.org/2000/svg" width="4012.2" height="2401.11" viewBox="0 0 4012.2 2401.11"><g id="Layer_2" data-name="Layer 2"><g id="Слой_1" data-name="Слой 1"><g id="CHARACTER"><g id="HEAD"><g id="NECK"><polygon points="1764.54 297.74 1764.54 373.37 1594.32 373.37 1664.66 249.96 1764.54 297.74" fill="#fff" stroke="#59221d" stroke-linecap="round" stroke-linejoin="round" stroke-width="5"/><path d="M1764.54,373.37V297.74L1666.66,250v17.09A68.85,68.85,0,0,0,1695.35,323Z" fill="#59221d"/></g><g id="CAP"><path d="M1659.39,227.13v-30a37.23,37.23,0,0,1,21.18-33.6l42.55-20.35a33.68,33.68,0,0,1,46.68,20.4l4,13Z" fill="#fff" stroke="#59221d" stroke-linecap="round" stroke-linejoin="round" stroke-width="5"/><line x1="1659.39" y1="227.13" x2="1814.83" y2="158.42" fill="none" stroke="#59221d" stroke-linecap="round" stroke-linejoin="round" stroke-width="5"/></g><g id="HEAD-2" data-name="HEAD"><path id="HEAD-3" data-name="HEAD" d="M1658.77,272.73h20.39l3.67,12.26A22.05,22.05,0,0,0,1704,300.73h54.35a27.08,27.08,0,0,0,26.88-30.33l-11.34-93.79-109.11,47.91h-6a24.1,24.1,0,0,0-24.11,23.83h0A24.11,24.11,0,0,0,1658.77,272.73Z" fill="#fff" stroke="#59221d" stroke-linecap="round" stroke-linejoin="round" stroke-width="5"/><path id="HAIR" d="M1664.39,227h0a8.57,8.57,0,0,1,8.57,8.58V249h2.61a13,13,0,0,0,13-13v-5.21a18.22,18.22,0,0,1,8.94-15.67l21.23-12.58Z" fill="#59221d"/><g id="FACE"><path d="M1776,203.47s-24.33-3.39-27.33,8.36c-1.87,7.29,20.88,43.86,3.47,43.86" fill="none" stroke="#59221d" stroke-linecap="round" stroke-miterlimit="10" stroke-width="5"/><ellipse cx="1725.22" cy="231.02" rx="4.76" ry="6.49" fill="#59221d"/><ellipse cx="1769.59" cy="231.02" rx="4.76" ry="6.49" fill="#59221d"/><path d="M1664.66,249a12.55,12.55,0,0,0-12.55-12.55" fill="none" stroke="#59221d" stroke-linecap="round" stroke-miterlimit="10" stroke-width="5"/><path d="M1748.59,270.13s-20,0-19.89-9.82" fill="none" stroke="#59221d" stroke-linecap="round" stroke-miterlimit="10" stroke-width="5"/></g></g></g><g id="SHIRT"><path d="M2133.29,704.77a54.34,54.34,0,0,1-20.75-33.37l-30.1-158.31a172.3,172.3,0,0,0-169.2-139.72h-441a254.69,254.69,0,0,0-210.58,111.44L1077.76,755.14c-25.8,37.94-35.37,80-31.91,120.06C1051.91,945.46,1111.58,999,1182.1,999h23.37l141.44-171.74c-13.37-2.93-20.13-15.05-13.14-25.54l83.31-125c13.76-20.63,45.09-17,53.8,6.18l98,250.92s405.35,0,405.36.08Z" fill="#fff" stroke="#f3b304" stroke-miterlimit="10" stroke-width="5"/><rect x="1227.35" y="549.3" width="43.6" height="43.6" transform="translate(-37.97 1050.55) rotate(-45)" fill="#f3b304"/><polygon points="1224.98 571.11 1194.15 601.94 1186.9 594.69 1211.86 557.99 1221.65 567.78 1224.98 571.11" fill="#f3b304"/><rect x="1282.35" y="549.3" width="43.6" height="43.6" transform="translate(-21.86 1089.44) rotate(-45)" fill="#f3b304"/><rect x="1338.35" y="549.3" width="43.6" height="43.6" transform="translate(-5.46 1129.04) rotate(-45)" fill="#f3b304"/><rect x="1393.35" y="549.3" width="43.6" height="43.6" transform="translate(10.65 1167.93) rotate(-45)" fill="#f3b304"/><rect x="1448.35" y="549.3" width="43.6" height="43.6" transform="translate(26.76 1206.82) rotate(-45)" fill="#f3b304"/><rect x="1503.35" y="549.3" width="43.6" height="43.6" transform="translate(42.87 1245.71) rotate(-45)" fill="#f3b304"/><rect x="1559.35" y="549.3" width="43.6" height="43.6" transform="translate(59.27 1285.31) rotate(-45)" fill="#f3b304"/><rect x="1614.35" y="549.3" width="43.6" height="43.6" transform="translate(75.38 1324.2) rotate(-45)" fill="#f3b304"/><rect x="1668.35" y="549.3" width="43.6" height="43.6" transform="translate(91.2 1362.39) rotate(-45)" fill="#f3b304"/><rect x="1723.35" y="549.3" width="43.6" height="43.6" transform="translate(107.31 1401.28) rotate(-45)" fill="#f3b304"/><rect x="1779.35" y="549.3" width="43.6" height="43.6" transform="translate(123.71 1440.88) rotate(-45)" fill="#f3b304"/><rect x="1834.35" y="549.3" width="43.6" height="43.6" transform="translate(139.82 1479.77) rotate(-45)" fill="#f3b304"/><rect x="1889.35" y="549.3" width="43.6" height="43.6" transform="translate(155.93 1518.66) rotate(-45)" fill="#f3b304"/><rect x="1944.35" y="549.3" width="43.6" height="43.6" transform="translate(172.04 1557.55) rotate(-45)" fill="#f3b304"/><rect x="2000.35" y="549.3" width="43.6" height="43.6" transform="translate(188.44 1597.15) rotate(-45)" fill="#f3b304"/><polygon points="2095.79 583.3 2077.15 601.94 2046.32 571.11 2077.15 540.28 2078.98 542.11 2090.07 553.2 2095.79 583.3" fill="#f3b304"/><polygon points="1279.98 513.11 1249.15 543.94 1232.65 527.44 1257.61 490.74 1276.65 509.78 1279.98 513.11" fill="#f3b304"/><rect x="1282.35" y="491.3" width="43.6" height="43.6" transform="translate(19.16 1072.46) rotate(-45)" fill="#f3b304"/><rect x="1338.35" y="491.3" width="43.6" height="43.6" transform="translate(35.56 1112.05) rotate(-45)" fill="#f3b304"/><rect x="1393.35" y="491.3" width="43.6" height="43.6" transform="translate(51.67 1150.94) rotate(-45)" fill="#f3b304"/><rect x="1448.35" y="491.3" width="43.6" height="43.6" transform="translate(67.78 1189.84) rotate(-45)" fill="#f3b304"/><rect x="1503.35" y="491.3" width="43.6" height="43.6" transform="translate(83.88 1228.73) rotate(-45)" fill="#f3b304"/><rect x="1559.35" y="491.3" width="43.6" height="43.6" transform="translate(100.29 1268.32) rotate(-45)" fill="#f3b304"/><rect x="1614.35" y="491.3" width="43.6" height="43.6" transform="translate(116.4 1307.22) rotate(-45)" fill="#f3b304"/><rect x="1668.35" y="491.3" width="43.6" height="43.6" transform="translate(132.21 1345.4) rotate(-45)" fill="#f3b304"/><rect x="1723.35" y="491.3" width="43.6" height="43.6" transform="translate(148.32 1384.29) rotate(-45)" fill="#f3b304"/><rect x="1779.35" y="491.3" width="43.6" height="43.6" transform="translate(164.72 1423.89) rotate(-45)" fill="#f3b304"/><rect x="1834.35" y="491.3" width="43.6" height="43.6" transform="translate(180.83 1462.78) rotate(-45)" fill="#f3b304"/><rect x="1889.35" y="491.3" width="43.6" height="43.6" transform="translate(196.94 1501.67) rotate(-45)" fill="#f3b304"/><rect x="1944.35" y="491.3" width="43.6" height="43.6" transform="translate(213.05 1540.56) rotate(-45)" fill="#f3b304"/><rect x="2000.35" y="491.3" width="43.6" height="43.6" transform="translate(229.45 1580.16) rotate(-45)" fill="#f3b304"/><path d="M2086.52,534.57l-9.37,9.37-30.83-30.83,28.18-28.18a172.65,172.65,0,0,1,7.94,28.16Z" fill="#f3b304"/><path d="M1335,456.11l-30.83,30.83-25-25a253.44,253.44,0,0,1,31.16-30.5l21.83,21.83Z" fill="#f3b304"/><rect x="1338.35" y="434.3" width="43.6" height="43.6" transform="translate(75.86 1095.36) rotate(-45)" fill="#f3b304"/><rect x="1393.35" y="434.3" width="43.6" height="43.6" transform="translate(91.97 1134.25) rotate(-45)" fill="#f3b304"/><rect x="1448.35" y="434.3" width="43.6" height="43.6" transform="translate(108.08 1173.14) rotate(-45)" fill="#f3b304"/><rect x="1503.35" y="434.3" width="43.6" height="43.6" transform="translate(124.19 1212.03) rotate(-45)" fill="#f3b304"/><rect x="1559.35" y="434.3" width="43.6" height="43.6" transform="translate(140.59 1251.63) rotate(-45)" fill="#f3b304"/><rect x="1614.35" y="434.3" width="43.6" height="43.6" transform="translate(156.7 1290.52) rotate(-45)" fill="#f3b304"/><rect x="1668.35" y="434.3" width="43.6" height="43.6" transform="translate(172.52 1328.7) rotate(-45)" fill="#f3b304"/><rect x="1723.35" y="434.3" width="43.6" height="43.6" transform="translate(188.63 1367.6) rotate(-45)" fill="#f3b304"/><rect x="1779.35" y="434.3" width="43.6" height="43.6" transform="translate(205.03 1407.19) rotate(-45)" fill="#f3b304"/><rect x="1834.35" y="434.3" width="43.6" height="43.6" transform="translate(221.14 1446.08) rotate(-45)" fill="#f3b304"/><rect x="1889.35" y="434.3" width="43.6" height="43.6" transform="translate(237.25 1484.97) rotate(-45)" fill="#f3b304"/><rect x="1944.35" y="434.3" width="43.6" height="43.6" transform="translate(253.36 1523.87) rotate(-45)" fill="#f3b304"/><rect x="2000.35" y="434.3" width="43.6" height="43.6" transform="translate(269.76 1563.46) rotate(-45)" fill="#f3b304"/><path d="M2074.11,483.9l-27.79-27.79,8.57-8.57A171,171,0,0,1,2074.11,483.9Z" fill="#f3b304"/><path d="M1391,398.11l-30.83,30.83L1341,409.79a252.28,252.28,0,0,1,41.56-20.1l5.09,5.09Z" fill="#f3b304"/><path d="M1446,398.11l-30.83,30.83-30.83-30.83L1398,384.43a252,252,0,0,1,27.54-6.75h0l17.1,17.1Z" fill="#f3b304"/><path d="M1501,398.11l-30.83,30.83-30.83-30.83,24.6-24.6q4.14-.13,8.3-.14h4l21.41,21.41Z" fill="#f3b304"/><polygon points="1555.98 398.11 1525.15 428.94 1494.32 398.11 1519.06 373.37 1531.24 373.37 1553.15 395.28 1555.98 398.11" fill="#f3b304"/><polygon points="1611.98 398.11 1581.15 428.94 1550.32 398.11 1575.06 373.37 1587.24 373.37 1608.65 394.78 1611.98 398.11" fill="#f3b304"/><polygon points="1666.98 398.11 1636.15 428.94 1605.32 398.11 1630.06 373.37 1642.24 373.37 1663.15 394.28 1666.98 398.11" fill="#f3b304"/><polygon points="1720.98 398.11 1690.15 428.94 1659.32 398.11 1684.06 373.37 1696.24 373.37 1717.65 394.78 1720.98 398.11" fill="#f3b304"/><polygon points="1775.98 398.11 1745.15 428.94 1714.32 398.11 1739.06 373.37 1751.24 373.37 1773.15 395.28 1775.98 398.11" fill="#f3b304"/><polygon points="1831.98 398.11 1801.15 428.94 1770.32 398.11 1795.06 373.37 1807.24 373.37 1828.65 394.78 1831.98 398.11" fill="#f3b304"/><polygon points="1886.98 398.11 1856.15 428.94 1825.32 398.11 1850.06 373.37 1862.24 373.37 1883.65 394.78 1886.98 398.11" fill="#f3b304"/><path d="M1942,398.11l-30.83,30.83-30.83-30.83,24.74-24.74h8.18c1.35,0,2.71,0,4,.05Z" fill="#f3b304"/><path d="M1997,398.11l-30.83,30.83-30.83-30.83L1955,378.48a171.37,171.37,0,0,1,35.57,13.17Z" fill="#f3b304"/><path d="M2031.11,420l-7.13,7.13-1.83,1.83-30.83-30.83,2.83-2.83,1.14-1.14A173.39,173.39,0,0,1,2031.11,420Z" fill="#f3b304"/><polygon points="1555.98 801.11 1527.97 829.12 1510.66 784.77 1525.15 770.28 1555.98 801.11" fill="#f3b304"/><rect x="1559.35" y="779.3" width="43.6" height="43.6" transform="translate(-103.36 1352.68) rotate(-45)" fill="#f3b304"/><rect x="1614.35" y="779.3" width="43.6" height="43.6" transform="translate(-87.25 1391.57) rotate(-45)" fill="#f3b304"/><rect x="1669.35" y="779.3" width="43.6" height="43.6" transform="translate(-71.14 1430.46) rotate(-45)" fill="#f3b304"/><rect x="1724.35" y="779.3" width="43.6" height="43.6" transform="translate(-55.03 1469.35) rotate(-45)" fill="#f3b304"/><rect x="1780.35" y="779.3" width="43.6" height="43.6" transform="translate(-38.63 1508.95) rotate(-45)" fill="#f3b304"/><rect x="1835.35" y="779.3" width="43.6" height="43.6" transform="translate(-22.52 1547.84) rotate(-45)" fill="#f3b304"/><rect x="1889.35" y="779.3" width="43.6" height="43.6" transform="translate(-6.71 1586.02) rotate(-45)" fill="#f3b304"/><rect x="1944.35" y="779.3" width="43.6" height="43.6" transform="translate(9.4 1624.91) rotate(-45)" fill="#f3b304"/><rect x="2000.35" y="779.3" width="43.6" height="43.6" transform="translate(25.81 1664.51) rotate(-45)" fill="#f3b304"/><polygon points="2083.44 776.57 2058.17 812.96 2046.32 801.11 2077.15 770.27 2083.44 776.57" fill="#f3b304"/><polygon points="1500.98 743.11 1497.65 746.44 1496.24 747.85 1494.44 743.23 1494.32 743.11 1494.37 743.06 1490.17 732.3 1497.65 739.78 1500.98 743.11" fill="#f3b304"/><rect x="1503.35" y="721.31" width="43.6" height="43.6" transform="translate(-78.75 1296.09) rotate(-45)" fill="#f3b304"/><rect x="1559.35" y="721.3" width="43.6" height="43.6" transform="translate(-62.35 1335.69) rotate(-45)" fill="#f3b304"/><rect x="1614.35" y="721.3" width="43.6" height="43.6" transform="translate(-46.24 1374.58) rotate(-45)" fill="#f3b304"/><rect x="1669.35" y="721.3" width="43.6" height="43.6" transform="translate(-30.13 1413.47) rotate(-45)" fill="#f3b304"/><rect x="1724.35" y="721.3" width="43.6" height="43.6" transform="translate(-14.02 1452.36) rotate(-45)" fill="#f3b304"/><rect x="1780.35" y="721.3" width="43.6" height="43.6" transform="translate(2.38 1491.96) rotate(-45)" fill="#f3b304"/><rect x="1835.35" y="721.3" width="43.6" height="43.6" transform="translate(18.49 1530.85) rotate(-45)" fill="#f3b304"/><rect x="1889.35" y="721.3" width="43.6" height="43.6" transform="translate(34.31 1569.04) rotate(-45)" fill="#f3b304"/><rect x="1944.35" y="721.3" width="43.6" height="43.6" transform="translate(50.42 1607.93) rotate(-45)" fill="#f3b304"/><rect x="2000.35" y="721.3" width="43.6" height="43.6" transform="translate(66.82 1647.52) rotate(-45)" fill="#f3b304"/><polygon points="2106.98 742.11 2081.94 778.73 2046.32 743.11 2077.15 712.27 2106.98 742.11" fill="#f3b304"/><path d="M1501,686.11l-20.75,20.75-9.35-24A29.91,29.91,0,0,0,1458,667.43l12.15-12.15Z" fill="#f3b304"/><rect x="1503.35" y="664.3" width="43.6" height="43.6" transform="translate(-38.44 1279.4) rotate(-45)" fill="#f3b304"/><rect x="1559.35" y="664.3" width="43.6" height="43.6" transform="translate(-22.04 1319) rotate(-45)" fill="#f3b304"/><rect x="1614.35" y="664.3" width="43.6" height="43.6" transform="translate(-5.93 1357.89) rotate(-45)" fill="#f3b304"/><rect x="1669.35" y="664.3" width="43.6" height="43.6" transform="translate(10.18 1396.78) rotate(-45)" fill="#f3b304"/><rect x="1724.35" y="664.3" width="43.6" height="43.6" transform="translate(26.28 1435.67) rotate(-45)" fill="#f3b304"/><rect x="1780.35" y="664.3" width="43.6" height="43.6" transform="translate(42.69 1475.27) rotate(-45)" fill="#f3b304"/><rect x="1835.35" y="664.3" width="43.6" height="43.6" transform="translate(58.8 1514.16) rotate(-45)" fill="#f3b304"/><rect x="1889.35" y="664.3" width="43.6" height="43.6" transform="translate(74.61 1552.34) rotate(-45)" fill="#f3b304"/><rect x="1944.35" y="664.3" width="43.6" height="43.6" transform="translate(90.72 1591.23) rotate(-45)" fill="#f3b304"/><rect x="2000.35" y="664.3" width="43.6" height="43.6" transform="translate(107.12 1630.83) rotate(-45)" fill="#f3b304"/><rect x="2055.35" y="664.3" width="43.6" height="43.6" transform="translate(123.23 1669.72) rotate(-45)" fill="#f3b304"/><path d="M2127.48,712.27l-26.16-26.16,11.84-11.84a54.35,54.35,0,0,0,20.13,30.5Z" fill="#f3b304"/><rect x="1448.35" y="606.3" width="43.6" height="43.6" transform="translate(-13.54 1223.52) rotate(-45)" fill="#f3b304"/><rect x="1503.35" y="606.3" width="43.6" height="43.6" transform="translate(2.57 1262.41) rotate(-45)" fill="#f3b304"/><rect x="1559.35" y="606.3" width="43.6" height="43.6" transform="translate(18.97 1302.01) rotate(-45)" fill="#f3b304"/><rect x="1614.35" y="606.3" width="43.6" height="43.6" transform="translate(35.08 1340.9) rotate(-45)" fill="#f3b304"/><rect x="1669.35" y="606.3" width="43.6" height="43.6" transform="translate(51.19 1379.79) rotate(-45)" fill="#f3b304"/><rect x="1724.35" y="606.3" width="43.6" height="43.6" transform="translate(67.3 1418.68) rotate(-45)" fill="#f3b304"/><rect x="1780.35" y="606.3" width="43.6" height="43.6" transform="translate(83.7 1458.28) rotate(-45)" fill="#f3b304"/><rect x="1835.35" y="606.3" width="43.6" height="43.6" transform="translate(99.81 1497.17) rotate(-45)" fill="#f3b304"/><rect x="1889.35" y="606.3" width="43.6" height="43.6" transform="translate(115.62 1535.35) rotate(-45)" fill="#f3b304"/><rect x="1944.35" y="606.3" width="43.6" height="43.6" transform="translate(131.73 1574.24) rotate(-45)" fill="#f3b304"/><rect x="2000.35" y="606.3" width="43.6" height="43.6" transform="translate(148.14 1613.84) rotate(-45)" fill="#f3b304"/><polygon points="2104.9 631.19 2077.15 658.94 2046.32 628.11 2077.15 597.28 2079.48 599.61 2103.45 623.58 2104.65 624.78 2103.83 625.6 2104.9 631.19" fill="#f3b304"/><polygon points="2105.01 631.8 2101.32 628.11 2103.83 625.6 2104.9 631.19 2105.01 631.8" fill="#f3b304"/><polygon points="1611.98 917.11 1595.27 933.82 1568.86 933.82 1558.96 908.47 1581.15 886.28 1611.98 917.11" fill="#f3b304"/><polygon points="1666.98 917.11 1650.27 933.82 1622.03 933.82 1605.32 917.11 1636.15 886.28 1666.98 917.11" fill="#f3b304"/><polygon points="1721.98 917.11 1705.27 933.82 1677.03 933.82 1660.32 917.11 1691.15 886.28 1721.98 917.11" fill="#f3b304"/><polygon points="1776.98 917.11 1760.27 933.82 1732.03 933.82 1715.32 917.11 1746.15 886.28 1776.98 917.11" fill="#f3b304"/><polygon points="1832.98 917.11 1816.27 933.82 1788.03 933.82 1771.32 917.11 1802.15 886.28 1832.98 917.11" fill="#f3b304"/><polygon points="1887.98 917.11 1871.27 933.82 1843.03 933.82 1826.32 917.11 1857.15 886.28 1887.98 917.11" fill="#f3b304"/><polygon points="1941.98 917.11 1925.27 933.82 1897.03 933.82 1880.32 917.11 1911.15 886.28 1941.98 917.11" fill="#f3b304"/><polygon points="1990.42 910.56 1974.36 933.86 1952.03 933.82 1935.32 917.11 1966.15 886.28 1990.42 910.56" fill="#f3b304"/><polygon points="1555.98 859.11 1544.26 870.83 1529.25 832.38 1553.15 856.28 1555.98 859.11" fill="#f3b304"/><rect x="1559.35" y="837.3" width="43.6" height="43.6" transform="translate(-144.37 1369.67) rotate(-45)" fill="#f3b304"/><rect x="1614.35" y="837.3" width="43.6" height="43.6" transform="translate(-128.26 1408.56) rotate(-45)" fill="#f3b304"/><rect x="1669.35" y="837.3" width="43.6" height="43.6" transform="translate(-112.15 1447.45) rotate(-45)" fill="#f3b304"/><rect x="1724.35" y="837.3" width="43.6" height="43.6" transform="translate(-96.05 1486.34) rotate(-45)" fill="#f3b304"/><rect x="1780.35" y="837.3" width="43.6" height="43.6" transform="translate(-79.64 1525.94) rotate(-45)" fill="#f3b304"/><rect x="1835.35" y="837.3" width="43.6" height="43.6" transform="translate(-63.53 1564.83) rotate(-45)" fill="#f3b304"/><rect x="1889.35" y="837.3" width="43.6" height="43.6" transform="translate(-47.72 1603.01) rotate(-45)" fill="#f3b304"/><rect x="1944.35" y="837.3" width="43.6" height="43.6" transform="translate(-31.61 1641.9) rotate(-45)" fill="#f3b304"/><polygon points="2011.87 879.66 1991.32 859.11 2022.15 828.27 2037.14 843.26 2011.87 879.66" fill="#f3b304"/><path d="M1059,801.11l-3.33,3.33-2.85,2.85c.43-1.45.88-2.9,1.36-4.34.54-1.66,1.1-3.31,1.7-5Z" fill="#f3b304"/><path d="M1114,801.11l-30.83,30.83-29-29c.54-1.66,1.1-3.31,1.7-5l-.21-.21.45-.45,25.22-25.22,1.83-1.83Z" fill="#f3b304"/><rect x="1117.35" y="779.3" width="43.6" height="43.6" transform="translate(-232.82 1040.14) rotate(-45)" fill="#f3b304"/><rect x="1172.35" y="779.3" width="43.6" height="43.6" transform="translate(-216.71 1079.03) rotate(-45)" fill="#f3b304"/><rect x="1227.35" y="779.3" width="43.6" height="43.6" transform="translate(-200.6 1117.92) rotate(-45)" fill="#f3b304"/><path d="M1334.49,800.62l-.72,1.07c-.34.52-.65,1-.93,1.56l-28.69,28.69-30.83-30.83,30.83-30.83,28,28Z" fill="#f3b304"/><path d="M1343.83,786.6l-9.34,14-.72,1.07c-.34.52-.65,1-.93,1.56-.16.3-.32.61-.46.92l-3.06-3.06Z" fill="#f3b304"/><path d="M1114,743.11l-30.83,30.83-10.64-10.64q2.49-4.11,5.25-8.16l19.53-28.72Z" fill="#f3b304"/><rect x="1117.35" y="721.3" width="43.6" height="43.6" transform="translate(-191.81 1023.15) rotate(-45)" fill="#f3b304"/><rect x="1172.35" y="721.3" width="43.6" height="43.6" transform="translate(-175.7 1062.04) rotate(-45)" fill="#f3b304"/><rect x="1227.35" y="721.3" width="43.6" height="43.6" transform="translate(-159.59 1100.93) rotate(-45)" fill="#f3b304"/><rect x="1282.35" y="721.3" width="43.6" height="43.6" transform="translate(-143.48 1139.82) rotate(-45)" fill="#f3b304"/><polygon points="1380.08 732.21 1355.42 769.21 1329.32 743.11 1360.15 712.28 1380.08 732.21" fill="#f3b304"/><polygon points="1169.98 686.11 1139.15 716.94 1118.08 695.87 1143.04 659.17 1169.98 686.11" fill="#f3b304"/><rect x="1172.35" y="664.3" width="43.6" height="43.6" transform="translate(-135.39 1045.34) rotate(-45)" fill="#f3b304"/><rect x="1227.35" y="664.3" width="43.6" height="43.6" transform="translate(-119.28 1084.24) rotate(-45)" fill="#f3b304"/><rect x="1282.35" y="664.3" width="43.6" height="43.6" transform="translate(-103.17 1123.13) rotate(-45)" fill="#f3b304"/><rect x="1338.35" y="664.3" width="43.6" height="43.6" transform="translate(-86.77 1162.72) rotate(-45)" fill="#f3b304"/><path d="M1427.1,667.23a30.29,30.29,0,0,0-10,9.49L1400.22,702l-15.9-15.9,30.83-30.83Z" fill="#f3b304"/><polygon points="1188.78 591.91 1224.98 628.11 1194.15 658.94 1163.82 628.61 1188.78 591.91" fill="#f3b304"/><rect x="1227.35" y="606.3" width="43.6" height="43.6" transform="translate(-78.27 1067.25) rotate(-45)" fill="#f3b304"/><rect x="1282.35" y="606.3" width="43.6" height="43.6" transform="translate(-62.16 1106.14) rotate(-45)" fill="#f3b304"/><rect x="1338.35" y="606.3" width="43.6" height="43.6" transform="translate(-45.76 1145.74) rotate(-45)" fill="#f3b304"/><rect x="1393.35" y="606.3" width="43.6" height="43.6" transform="translate(-29.65 1184.63) rotate(-45)" fill="#f3b304"/><path d="M1059,917.11l-1.75,1.75c-.7-1.54-1.37-3.1-2-4.67-.21-.46-.39-.93-.58-1.4Z" fill="#f3b304"/><polygon points="1055.24 914.19 1083.15 886.28 1113.98 917.11 1078.81 952.28 1055.24 914.19" fill="#f3b304"/><rect x="1117.35" y="895.3" width="43.6" height="43.6" transform="translate(-314.84 1074.11) rotate(-45)" fill="#f3b304"/><rect x="1172.35" y="895.3" width="43.6" height="43.6" transform="translate(-298.73 1113) rotate(-45)" fill="#f3b304"/><path d="M1170,976.11l-19.25,19.25A136.93,136.93,0,0,1,1112,979.77l-3.66-3.66,30.83-30.83Z" fill="#f3b304"/><polygon points="1224.98 976.11 1221.11 979.98 1202.12 998.97 1186.18 998.97 1163.32 976.11 1194.15 945.28 1195.48 946.61 1224.61 975.74 1224.98 976.11" fill="#f3b304"/><polygon points="1276.09 913.22 1248.24 947.03 1218.32 917.11 1249.15 886.28 1276.09 913.22" fill="#f3b304"/><path d="M1059,859.11l-3.33,3.33-10,10a183.79,183.79,0,0,1,0-26.65l10,10Z" fill="#f3b304"/><rect x="1061.35" y="837.3" width="43.6" height="43.6" transform="translate(-290.23 1017.53) rotate(-45)" fill="#f3b304"/><rect x="1117.35" y="837.3" width="43.6" height="43.6" transform="translate(-273.83 1057.12) rotate(-45)" fill="#f3b304"/><rect x="1172.35" y="837.3" width="43.6" height="43.6" transform="translate(-257.72 1096.02) rotate(-45)" fill="#f3b304"/><rect x="1227.35" y="837.3" width="43.6" height="43.6" transform="translate(-241.61 1134.91) rotate(-45)" fill="#f3b304"/><polygon points="1327.12 851.25 1299.28 885.07 1273.32 859.11 1304.15 828.28 1305.98 830.11 1327.12 851.25" fill="#f3b304"/><line x1="1974.18" y1="933.82" x2="1974.18" y2="612.26" fill="none" stroke="#59221d" stroke-linecap="round" stroke-linejoin="round" stroke-width="5"/><polygon points="1766.54 370.37 1766.54 587.32 1669.65 370.37 1766.54 370.37" fill="#59221d"/><path d="M1833.65,376.37h-67.11v-45.1a50,50,0,0,1,33.31,13.48Z" fill="#7ebad2"/><path d="M1672.65,376.37l-10.76-30.46a22,22,0,0,0-20.71-14.65h-82.4a50,50,0,0,0-34.16,13.49l-33.8,31.62Z" fill="#7ebad2"/><path d="M1618.87,376.37,1648,341.51a7.64,7.64,0,0,1,13,2.32l11.65,32.54Z" fill="#59221d"/><path d="M1819.43,569.94h97.78a0,0,0,0,1,0,0V629.4A14.61,14.61,0,0,1,1902.6,644H1834a14.61,14.61,0,0,1-14.61-14.61V569.94A0,0,0,0,1,1819.43,569.94Z" fill="#fff" stroke="#59221d" stroke-linecap="round" stroke-linejoin="round" stroke-width="5"/><rect x="1819.43" y="550.01" width="97.78" height="19.92" stroke-width="5" stroke="#59221d" stroke-linecap="round" stroke-linejoin="round" fill="#fff"/></g><g id="LEGS"><g id="SHOES"><path d="M2049.87,2338.65H1789.7c-21.77,0-39.71-17.41-42.12-38.53h38.66a110.58,110.58,0,0,0,40.47-7.68l40.48-15.94a208.52,208.52,0,0,1,76.36-14.48h30.69Z" fill="#59221d"/><path d="M1374,2338.63H1058.31a41.43,41.43,0,0,1-41.25-37.53h94.35a110.58,110.58,0,0,0,40.47-7.68l40.48-15.94a208.52,208.52,0,0,1,76.36-14.48h32.69Z" fill="#59221d"/></g><g id="PANTS"><path d="M1974.24,2262h-30.69a208.52,208.52,0,0,0-76.36,14.48l-40.48,15.94a110.58,110.58,0,0,1-40.47,7.68h-38.66a41.23,41.23,0,0,1-.28-4.87V1234.38c0-9.93-13.65-12.65-17.46-3.48L1301.41,2263h-32.69a208.52,208.52,0,0,0-76.36,14.48l-40.48,15.94a110.58,110.58,0,0,1-40.47,7.68h-94.35a41.23,41.23,0,0,1,2.92-19.46L1568.86,933.82h405.33V2262Z" fill="#a74602"/><polygon points="1974.19 933.82 1974.19 984.82 1548.09 984.82 1568.86 933.82 1974.19 933.82" fill="none" stroke="#59221d" stroke-linecap="round" stroke-linejoin="round" stroke-width="5"/><rect x="1762.57" y="933.82" width="51.3" height="51.3" rx="5.82" stroke-width="5" stroke="#59221d" stroke-linecap="round" stroke-linejoin="round" fill="none"/><line x1="1762.57" y1="959.32" x2="1788.22" y2="959.32" fill="none" stroke="#59221d" stroke-linecap="round" stroke-linejoin="round" stroke-width="5"/><rect x="1895.43" y="933.82" width="11.06" height="51" stroke-width="5" stroke="#59221d" stroke-linecap="round" stroke-linejoin="round" fill="none"/><rect x="1667.43" y="933.82" width="11.06" height="51" stroke-width="5" stroke="#59221d" stroke-linecap="round" stroke-linejoin="round" fill="none"/></g></g><g id="BAG"><polygon points="1834.65 373.37 1456.47 1085.37 1502.98 1085.37 1877.24 373.37 1834.65 373.37" fill="#fff" stroke="#59221d" stroke-linecap="round" stroke-linejoin="round" stroke-width="5"/><path d="M1505,1085.08,1387.6,1372a45.27,45.27,0,0,1-41.94,28.22H1225.18a31.17,31.17,0,0,1-29-42.75l98.35-244a45.25,45.25,0,0,1,42-28.46Z" fill="#fff" stroke="#59221d" stroke-linecap="round" stroke-linejoin="round" stroke-width="5"/><path d="M1505,1085.37l-115.7,284.78A44.61,44.61,0,0,1,1348,1398h-47.75a30.73,30.73,0,0,1-28.53-42.14l96.93-242.41a44.61,44.61,0,0,1,41.42-28.05Z" fill="#fff" stroke="#59221d" stroke-linecap="round" stroke-linejoin="round" stroke-width="5"/><line x1="1454.99" y1="1085.37" x2="1452.16" y2="1092.32" fill="none" stroke="#59221d" stroke-linecap="round" stroke-miterlimit="10" stroke-width="5"/><path d="M1446.51,1106.22l-107.22,263.93a44.64,44.64,0,0,1-26.6,25.32" fill="none" stroke="#59221d" stroke-linecap="round" stroke-miterlimit="10" stroke-width="5" stroke-dasharray="15.01 15.01"/><path d="M1305.42,1397.34a45,45,0,0,1-7.46.63" fill="none" stroke="#59221d" stroke-linecap="round" stroke-miterlimit="10" stroke-width="5"/><line x1="1339.81" y1="1183.95" x2="1267.03" y2="1183.95" fill="none" stroke="#59221d" stroke-linecap="round" stroke-miterlimit="10" stroke-width="5"/></g><g id="HANDS"><g id="RIGHT"><path d="M2186.21,735c-25.18,9.72-56.36,52.52-75.36,107.52-23.75,68.74-21,132.06,6,141.42a23.67,23.67,0,0,0,14,.22l8.63-3.8A47.35,47.35,0,0,1,2103,997.6h-59.75c-35.19,0-68.86-27.1-68.91-62.29-.07-49,52-206.87,156-235.54,35.23-9.71,84.61-.25,88.49,26.81Z" fill="#59221d"/><path d="M2647.54,769.56H2520.49a12.47,12.47,0,0,1-10.92-18.48l82.37-149.55A26.16,26.16,0,0,1,2614.86,588h127a12.47,12.47,0,0,1,10.92,18.48L2670.46,756A26.16,26.16,0,0,1,2647.54,769.56Z" fill="none" stroke="#59221d" stroke-miterlimit="10" stroke-width="5"/><line x1="2631.2" y1="694.07" x2="2661.58" y2="765.45" fill="none" stroke="#59221d" stroke-miterlimit="10" stroke-width="5"/><line x1="2745.87" y1="587.98" x2="2638.93" y2="660.76" fill="none" stroke="#59221d" stroke-miterlimit="10" stroke-width="5"/><path d="M2601.27,591.8l41.29,74.41a18.61,18.61,0,0,1-6.52,24.88L2512.8,766.91" fill="none" stroke="#59221d" stroke-miterlimit="10" stroke-width="5"/><path d="M2130.86,984.18a23.67,23.67,0,0,1-14-.22c-27.09-9.36-29.79-72.68-6-141.42,19-55,50.18-97.8,75.36-107.52l306.62-79.48c5.82-2.69,23.15-3.08,29.57-3.08h79.45v4.71a26.92,26.92,0,0,1-22.24,26.52l-20.15,5.21a28.38,28.38,0,0,0-20,14.38l-25.32,52.52c-4.08,7.48,1.33,13.59,9.85,13.59h90.09s-26.86,52.68-119.14,72.26l-58.56,8.05Z" fill="#fff" stroke="#59221d" stroke-linecap="round" stroke-linejoin="round" stroke-width="5"/><path d="M2529.78,723.35c-12.14,21.77-32.74,49.65-59.84,52.83" fill="none" stroke="#59221d" stroke-linecap="round" stroke-miterlimit="10" stroke-width="5"/><path d="M2408.67,830a34.78,34.78,0,0,0,36,18.49" fill="none" stroke="#59221d" stroke-linecap="round" stroke-miterlimit="10" stroke-width="5"/></g><g id="LEFT"><path d="M1213.54,1004h-50c-48.54,0-79.63-56.6-57-99.54,12.17-23.11,29.15-46.67,48.2-67.6,62.81-69,146.47-95.16,186.9-58.38,8,7.32,14.83,21.25,14.83,43.73Z" fill="#59221d"/><path d="M1211.07,1001.83c-16.85-14.28,1.08-72.14,40-118.14,28.1-33.17,60.49-56.31,82.7-61.29,1.7-.15,3.33-.22,4.89-.22h92a213.13,213.13,0,0,1,107.25,28.94l65.7,38.23a55.15,55.15,0,0,1,26.14,46.89V1025a46.74,46.74,0,0,1-41.56,46.45l-65.49,7.3v-14.17a24.38,24.38,0,0,1,11-20.39l15.77-8.59a3.5,3.5,0,0,0-1.68-6.57H1528c-27.26,0-48.43-7.67-67.92-26.73l-225.17-.34Z" fill="#fff" stroke="#59221d" stroke-linecap="round" stroke-linejoin="round" stroke-width="5"/><path d="M1566.15,941.15l35.4,21.91a55.15,55.15,0,0,1,26.13,46.89v27.46" fill="none" stroke="#59221d" stroke-linecap="round" stroke-miterlimit="10" stroke-width="5"/><path d="M1566.15,904.15l35.4,21.91A55.15,55.15,0,0,1,1627.68,973v35.46" fill="none" stroke="#59221d" stroke-linecap="round" stroke-miterlimit="10" stroke-width="5"/><path d="M1626.53,1041c-3-16.69-11-29.68-24-37.72l-35.4-21.92" fill="none" stroke="#59221d" stroke-linecap="round" stroke-miterlimit="10" stroke-width="5"/><path d="M1453.32,976.83a43.2,43.2,0,0,0,21.85,37.56" fill="none" stroke="#59221d" stroke-linecap="round" stroke-miterlimit="10" stroke-width="5"/></g></g></g><path id="PLANT" d="M2996.45,2343.63a102.68,102.68,0,0,1,102.69-102.69h1.18c-33.64-46-53.82-104.16-54.09-167.4-.65-150.79,110.79-272.62,249.7-272.94,123.79-.28,226.69,97,247.08,225,31.39-25.65,69.9-38.75,111.52-38.75,105.61,0,191.22,95.26,191.22,215.25,0,49.93-16.82,103.93-41.76,140.61Z" fill="#fed4c7"/><g id="MAILBOX"><path d="M2780.82,1152.44h0a115.07,115.07,0,0,0,98.12-55l59.82-97.6h-161.9l-42.57,69.46C2712,1105.71,2738.17,1152.44,2780.82,1152.44Z" fill="#fed4c7"/><path d="M3214.55,843.18V983.89h-274V843.18A98.17,98.17,0,0,0,2854,745.69a96.78,96.78,0,0,1,11.61-.69h250.78A98.18,98.18,0,0,1,3214.55,843.18Z" fill="none" stroke="#59221d" stroke-linejoin="round" stroke-width="5"/><path d="M2940.55,843.35V985.89H2767.39V843.35c0-44.51,28.86-82.2,68.67-94.88a59,59,0,0,1,35.81,0C2911.68,761.15,2940.55,798.84,2940.55,843.35Z" fill="none" stroke="#59221d" stroke-linejoin="round" stroke-width="5"/><path d="M2767.39,843.35c0-44.51,28.86-82.2,68.67-94.88a59,59,0,0,1,35.81,0c39.81,12.68,68.68,50.37,68.68,94.88V965.89Z" fill="#59221d"/><line x1="2940.55" y1="983.89" x2="2940.55" y2="2338.63" fill="none" stroke="#59221d" stroke-miterlimit="10" stroke-width="5"/><path d="M2771.62,1149.05h0a123.11,123.11,0,0,0,105-58.77l64-104.39H2767.39l-45.54,74.29C2698,1099.07,2726,1149.05,2771.62,1149.05Z" fill="none" stroke="#59221d" stroke-linejoin="round" stroke-width="5"/><rect x="2993.57" y="668.35" width="59.72" height="26.72" fill="#7ebad2"/><line x1="2993.57" y1="906.25" x2="2993.57" y2="668.25" fill="none" stroke="#59221d" stroke-miterlimit="10" stroke-width="5"/><polygon points="2996.22 907.25 2996.22 748.32 3034.26 748.32 2996.22 907.25" fill="#fed4c7"/></g><g id="FENCE"><path d="M2698.35,2341.07V1750.45a121.1,121.1,0,0,1,242.1-4.68c.07,1.55.1,3.11.1,4.68v590.62" fill="none" stroke="#59221d" stroke-linecap="round" stroke-miterlimit="10" stroke-width="5"/><path d="M2940.35,2341.07V1750.45c0-1.57,0-3.13.1-4.68a121.1,121.1,0,0,1,242.1,4.68v590.62" fill="none" stroke="#59221d" stroke-linecap="round" stroke-miterlimit="10" stroke-width="5"/><path d="M3182.55,2341.07V1750.45a121.1,121.1,0,0,1,242.1-4.68c.07,1.55.1,3.11.1,4.68v590.62" fill="none" stroke="#59221d" stroke-linecap="round" stroke-miterlimit="10" stroke-width="5"/><path d="M3424.55,2341.07V1750.45c0-1.57,0-3.13.1-4.68a121.1,121.1,0,0,1,242.1,4.68v590.62" fill="none" stroke="#59221d" stroke-linecap="round" stroke-miterlimit="10" stroke-width="5"/><path d="M2698.35,2201.45a121.1,121.1,0,0,1,242-6.88" fill="none" stroke="#59221d" stroke-linecap="round" stroke-miterlimit="10" stroke-width="5"/><path d="M2940.55,2194.57a121.1,121.1,0,0,1,242,6.88" fill="none" stroke="#59221d" stroke-linecap="round" stroke-miterlimit="10" stroke-width="5"/><path d="M3182.55,2201.45a121.1,121.1,0,0,1,242-6.88" fill="none" stroke="#59221d" stroke-linecap="round" stroke-miterlimit="10" stroke-width="5"/><path d="M3424.75,2194.57a121.1,121.1,0,0,1,242,6.88" fill="none" stroke="#59221d" stroke-linecap="round" stroke-miterlimit="10" stroke-width="5"/><path d="M3666.55,2341.07V1750.45c0-1.57,0-3.13.1-4.68a121.1,121.1,0,0,1,242.1,4.68v590.62" fill="none" stroke="#59221d" stroke-linecap="round" stroke-miterlimit="10" stroke-width="5"/><path d="M3666.75,2194.57a121.1,121.1,0,0,1,242,6.88" fill="none" stroke="#59221d" stroke-linecap="round" stroke-miterlimit="10" stroke-width="5"/><line x1="2698.35" y1="1859.84" x2="3908.75" y2="1859.84" fill="none" stroke="#59221d" stroke-linecap="round" stroke-miterlimit="10" stroke-width="5"/><line x1="3114.13" y1="2341.07" x2="4009.7" y2="2341.07" fill="none" stroke="#59221d" stroke-linecap="round" stroke-miterlimit="10" stroke-width="5"/></g><g id="PLANT-2" data-name="PLANT"><path d="M3424.51,2338.63c-23.43,0-42.43-17.41-42.43-38.89s19-38.9,42.43-38.9a46,46,0,0,1,13,1.85,75.39,75.39,0,0,1,106.3-68.15,40.75,40.75,0,1,1,78,23.43,43.07,43.07,0,0,1,5.6-.35,44.28,44.28,0,0,1,44.28,44,40.75,40.75,0,1,1,19.4,77H3424.51Z" fill="#7ebad2"/><circle cx="3500.28" cy="2216.35" r="9" fill="#fff"/><circle cx="3528.1" cy="2164.66" r="12.5" fill="#7ebad2"/><circle cx="3363.77" cy="2271.87" r="15" fill="#7ebad2"/><circle cx="3427.57" cy="2291.38" r="9.01" fill="#fff"/><circle cx="3521.73" cy="2244.37" r="12.5" fill="#fff"/><circle cx="3630.4" cy="2253.92" r="12.5" fill="#fff"/><circle cx="3585.65" cy="2302.74" r="9.01" fill="#fff"/><circle cx="3766.88" cy="2314.51" r="23.12" fill="#7ebad2"/></g><g id="BICYCLE"><g id="MAIL_BOX" data-name="MAIL BOX"><rect x="267.84" y="1033.35" width="427.35" height="386" rx="49.85" fill="#7ebad2"/><rect x="255.84" y="1036.15" width="377.35" height="380.4" rx="49.85" stroke-width="5" stroke="#59221d" stroke-linecap="round" stroke-linejoin="round" fill="#fff"/><rect x="367.84" y="1175.09" width="151.96" height="102.19" rx="11.24" fill="none" stroke="#59221d" stroke-linecap="round" stroke-miterlimit="10" stroke-width="5"/><path d="M519.81,1186.6l-68.34,41.9a14.65,14.65,0,0,1-15.29,0l-68.34-41.9" fill="none" stroke="#59221d" stroke-linecap="round" stroke-miterlimit="10" stroke-width="5"/><line x1="465.84" y1="1236.5" x2="517.81" y2="1271.65" fill="none" stroke="#59221d" stroke-linecap="round" stroke-miterlimit="10" stroke-width="5"/><line x1="369.84" y1="1271.65" x2="421.81" y2="1236.5" fill="none" stroke="#59221d" stroke-linecap="round" stroke-miterlimit="10" stroke-width="5"/><line x1="255.84" y1="1086" x2="695.2" y2="1086" fill="none" stroke="#59221d" stroke-linecap="round" stroke-miterlimit="10" stroke-width="5"/></g><g id="GROUND"><line x1="2354.37" y1="2341.07" x2="132.02" y2="2341.07" fill="none" stroke="#59221d" stroke-linecap="round" stroke-miterlimit="10" stroke-width="5"/><line x1="541.81" y1="2398.61" x2="2051.46" y2="2398.61" fill="none" stroke="#59221d" stroke-linecap="round" stroke-miterlimit="10" stroke-width="5"/></g><g id="WHEELS"><circle cx="2092.25" cy="1908.11" r="429.52" fill="none" stroke="#f3b304" stroke-miterlimit="10" stroke-width="5"/><circle cx="2092.25" cy="1908.11" r="400" fill="none" stroke="#f3b304" stroke-miterlimit="10" stroke-width="5"/><circle cx="432.02" cy="1908.11" r="429.52" fill="none" stroke="#f3b304" stroke-miterlimit="10" stroke-width="5"/><circle cx="432.02" cy="1908.11" r="400" fill="none" stroke="#f3b304" stroke-miterlimit="10" stroke-width="5"/></g><g id="BASKET"><rect x="2019.29" y="1054.56" width="27.81" height="261.22" fill="#59221d"/><path d="M2251.87,1086.34l-69.93,219a13.57,13.57,0,0,1-12.92,9.44h-26.74a8.69,8.69,0,0,1-8.27-11.33l71-222.39a8.69,8.69,0,0,1,8.28-6h30.3A8.68,8.68,0,0,1,2251.87,1086.34Z" fill="#a74602"/><polygon points="2130.17 1314.77 2081.58 1314.77 2164.67 1054.56 2213.26 1054.56 2130.17 1314.77" fill="#f3b304"/><rect x="2047.1" y="1054.56" width="50.23" height="261.22" fill="#fed4c7"/><rect x="1800.96" y="1164.09" width="218.33" height="152.92" rx="17.97" fill="#7ebad2"/><path d="M1716.54,1125.23h539.85l-48.69,152.45a55.39,55.39,0,0,1-52.77,38.54H1807.54Z" fill="none" stroke="#f3b304" stroke-miterlimit="10" stroke-width="5"/><path d="M2215.39,1125.23l-48.69,152.45a55.39,55.39,0,0,1-52.77,38.54" fill="none" stroke="#f3b304" stroke-miterlimit="10" stroke-width="5"/><path d="M2171.69,1125.23,2123,1277.68a55.39,55.39,0,0,1-52.77,38.54" fill="none" stroke="#f3b304" stroke-miterlimit="10" stroke-width="5"/><path d="M2128,1125.23l-48.69,152.45a55.39,55.39,0,0,1-52.77,38.54" fill="none" stroke="#f3b304" stroke-miterlimit="10" stroke-width="5"/><path d="M2084.29,1125.23l-48.69,152.45a55.39,55.39,0,0,1-52.77,38.54" fill="none" stroke="#f3b304" stroke-miterlimit="10" stroke-width="5"/><path d="M2040.59,1125.23l-48.69,152.45a55.39,55.39,0,0,1-52.77,38.54" fill="none" stroke="#f3b304" stroke-miterlimit="10" stroke-width="5"/><path d="M1996.89,1125.23l-48.69,152.45a55.39,55.39,0,0,1-52.77,38.54" fill="none" stroke="#f3b304" stroke-miterlimit="10" stroke-width="5"/><path d="M1953.19,1125.23l-48.69,152.45a55.39,55.39,0,0,1-52.77,38.54" fill="none" stroke="#f3b304" stroke-miterlimit="10" stroke-width="5"/><path d="M1909.49,1125.23l-48.69,152.45a55.39,55.39,0,0,1-52.77,38.54" fill="none" stroke="#f3b304" stroke-miterlimit="10" stroke-width="5"/><path d="M1865.79,1125.23l-48.69,152.45a55.3,55.3,0,0,1-16.15,24.71" fill="none" stroke="#f3b304" stroke-miterlimit="10" stroke-width="5"/><line x1="1822.09" y1="1125.23" x2="1779.84" y2="1257.54" fill="none" stroke="#f3b304" stroke-miterlimit="10" stroke-width="5"/><line x1="1778.39" y1="1125.23" x2="1753.57" y2="1202.95" fill="none" stroke="#f3b304" stroke-miterlimit="10" stroke-width="5"/></g><path d="M1600,1908.76c0-271.84,220.37-492.21,492.21-492.21" fill="none" stroke="#59221d" stroke-linecap="round" stroke-miterlimit="10" stroke-width="5"/><path d="M1822.38,1347.43c-105.84,36.61-203.1,121.72-260.44,226l-68.1,123.79a406.34,406.34,0,0,1-356,210.49H982.29L804.45,1332.28" fill="none" stroke="#59221d" stroke-linecap="round" stroke-miterlimit="10" stroke-width="5"/><path d="M2092.25,1908.11l-396.64-825.06a101.15,101.15,0,0,0-91.17-57.36h-21.16a75.43,75.43,0,0,0-64.68,36.65l-13.66,22.8" fill="none" stroke="#59221d" stroke-linecap="round" stroke-miterlimit="10" stroke-width="5"/><path d="M718.2,1416.15h0a51.37,51.37,0,0,0-51.36-51.36H377a51.37,51.37,0,0,0-51.36,51.36v.4H764.92a88.65,88.65,0,0,1,84.56,62L435.3,1908.11" fill="none" stroke="#59221d" stroke-linecap="round" stroke-miterlimit="10" stroke-width="5"/><circle cx="2091.94" cy="1908.29" r="20.24" fill="none" stroke="#59221d" stroke-linecap="round" stroke-miterlimit="10" stroke-width="5"/><path d="M1158.76,2009.94c-.76,54.3-45.08,98.62-99.39,99.39A100.84,100.84,0,0,1,957.08,2008.5v-.43a39,39,0,0,0-38.91-39.41H435.9c-16.55,0-30.5-13-30.88-29.56a30.3,30.3,0,0,1,30.28-31h613.09q4.71-.45,9.53-.45A100.86,100.86,0,0,1,1158.76,2009.94Z" fill="#fff" stroke="#59221d" stroke-linecap="round" stroke-miterlimit="10" stroke-width="5"/><circle cx="1057.92" cy="2009.49" r="55.86" fill="none" stroke="#59221d" stroke-linecap="round" stroke-miterlimit="10" stroke-width="5"/><path d="M1057.92,2009.49l55,140.15a11.79,11.79,0,0,0,11,7.48H1261" fill="none" stroke="#59221d" stroke-linecap="round" stroke-miterlimit="10" stroke-width="5"/><circle cx="436.26" cy="1938.29" r="20.24" fill="none" stroke="#59221d" stroke-linecap="round" stroke-miterlimit="10" stroke-width="5"/><rect x="1115.78" y="2133.23" width="155.73" height="23.89" rx="7.63" fill="none" stroke="#f3b304" stroke-miterlimit="10" stroke-width="5"/><path id="SITTING" d="M907.64,1332.28H739.08a28.87,28.87,0,0,1-28.87-28.87h0a28.87,28.87,0,0,1,28.87-28.87H983.9a5,5,0,0,1,3.47,8.62L957,1312.38A71.15,71.15,0,0,1,907.64,1332.28Z" fill="#f3b304"/></g><g id="CLOUDS"><path d="M218.3,231v-3c20-52.38,73.69-89.9,136.81-89.9a154.18,154.18,0,0,1,55.51,10.23c7.57,2.93,15.77-2.41,15.76-10v-.19a126.29,126.29,0,0,1,9.12-47.2C456.07,39.57,509.22,3,571.57,3s115.48,36.57,136,87.92c.47,1.16.93,2.34,1.36,3.53q2.64-1.82,5.35-3.53a154.32,154.32,0,0,1,162.59,0c38.55,24.3,63.88,65.38,63.88,112v.2c0,6.35,8,9.92,13.21,5.85,29-22.49,67.86-36.24,110.6-36.24,55.36,0,104.23,23.08,133.52,58.32" fill="none" stroke="#fed4c7" stroke-linecap="round" stroke-miterlimit="10" stroke-width="6"/><path d="M755.66,256.43c-40.46-26.56-90.54-25.46-125.77-.89-.81.56-1.61,1.13-2.39,1.72q-.93-2.31-2-4.57A119.79,119.79,0,0,0,520,183.42c-35.38-.64-69.32,15.23-89.17,45.48l-.08.12" fill="none" stroke="#fed4c7" stroke-linecap="round" stroke-miterlimit="10" stroke-width="6"/></g></g></g></svg>