<svg width="45" height="45" viewBox="0 0 45 45" fill="none" xmlns="http://www.w3.org/2000/svg">
<g clip-path="url(#clip0_634_1989)">
<path d="M30.168 24.9998C27.9437 24.9998 26.1343 26.794 26.1343 28.9999C26.1343 31.2057 27.9437 33 30.168 33C32.3924 33 34.2018 31.2057 34.2018 28.9999C34.2018 26.794 32.3924 24.9998 30.168 24.9998ZM30.168 30.9999C29.0555 30.9999 28.1512 30.1031 28.1512 28.9999C28.1512 27.8966 29.0555 26.9998 30.168 26.9998C31.2805 26.9998 32.1849 27.8966 32.1849 28.9999C32.1849 30.1031 31.2799 30.9999 30.168 30.9999Z" fill="#F37021"/>
<path d="M16.386 24.9998C14.1617 24.9998 12.3523 26.794 12.3523 28.9999C12.3523 31.2057 14.1617 33 16.386 33C18.6104 33 20.4198 31.2057 20.4198 28.9999C20.4198 26.794 18.6104 24.9998 16.386 24.9998ZM16.386 30.9999C15.2735 30.9999 14.3692 30.1031 14.3692 28.9999C14.3692 27.8966 15.2735 26.9998 16.386 26.9998C17.4979 26.9998 18.4029 27.8966 18.4029 28.9999C18.4029 30.1031 17.4985 30.9999 16.386 30.9999Z" fill="#F37021"/>
<path d="M32.8842 13.5503C32.713 13.2125 32.3642 12.9993 31.983 12.9993H26.6718V14.9993H31.3605L34.1061 20.415L35.9086 19.5163L32.8842 13.5503Z" fill="#F37021"/>
<path d="M27.1423 28.033H19.5123V30.033H27.1423V28.033Z" fill="#F37021"/>
<path d="M13.3612 28.033H9.86555C9.30867 28.033 8.85742 28.4804 8.85742 29.0327C8.85742 29.5849 9.30867 30.0324 9.86555 30.0324H13.3612C13.918 30.0324 14.3693 29.5849 14.3693 29.0327C14.3699 28.4811 13.918 28.033 13.3612 28.033Z" fill="#F37021"/>
<path d="M37.788 21.92L35.8043 19.387C35.6137 19.1428 35.3193 19.0002 35.008 19.0002H27.6805V11.9997C27.6805 11.4475 27.2293 11 26.6724 11H9.86555C9.30867 11 8.85742 11.4475 8.85742 11.9997C8.85742 12.5519 9.30867 12.9994 9.86555 12.9994H25.6637V19.9993C25.6637 20.5516 26.1149 20.999 26.6718 20.999H34.5143L35.983 22.8751V28.0324H33.193C32.6362 28.0324 32.1849 28.4799 32.1849 29.0321C32.1849 29.5843 32.6362 30.0318 33.193 30.0318H36.9912C37.548 30.0318 37.9993 29.5843 37.9993 29.0321V22.533C37.9999 22.3111 37.9255 22.0954 37.788 21.92Z" fill="#F37021"/>
<path d="M13.2942 22.9668H8.65546C8.09859 22.9668 7.64734 23.4143 7.64734 23.9665C7.64734 24.5188 8.09859 24.9662 8.65546 24.9662H13.2942C13.8511 24.9662 14.3023 24.5188 14.3023 23.9665C14.3023 23.4143 13.8511 22.9668 13.2942 22.9668Z" fill="#F37021"/>
<path d="M15.6136 19.033H7.008C6.45113 19.033 5.99988 19.4811 5.99988 20.0333C5.99988 20.5855 6.45113 21.033 7.008 21.033H15.613C16.1699 21.033 16.6211 20.5855 16.6211 20.0333C16.6211 19.4811 16.1705 19.033 15.6136 19.033Z" fill="#F37021"/>
<path d="M17.2605 15.0999H8.65546C8.09859 15.0999 7.64734 15.5473 7.64734 16.0996C7.64734 16.6518 8.09859 17.0993 8.65546 17.0993H17.2605C17.8173 17.0993 18.2686 16.6518 18.2686 16.0996C18.2686 15.5473 17.8173 15.0999 17.2605 15.0999Z" fill="#F37021"/>
</g>
<defs>
<clipPath id="clip0_634_1989">
<rect width="32" height="22" fill="white" transform="translate(5.99988 11)"/>
</clipPath>
</defs>
</svg>
