<svg width="46" height="45" viewBox="0 0 46 45" fill="none" xmlns="http://www.w3.org/2000/svg">
<path d="M29.4558 17.4121H17.5646V29.3034H29.4558V17.4121Z" fill="#F37021"/>
<path d="M36.8878 24.8441C37.7797 24.8441 38.3742 24.2496 38.3742 23.3577C38.3742 22.6145 37.7797 21.8713 36.8878 21.8713H35.4014V18.8985H36.8878C37.7797 18.8985 38.3742 18.3039 38.3742 17.4121C38.3742 16.6689 37.7797 15.9257 36.8878 15.9257H35.4014V14.4393C35.4014 12.8042 34.0637 11.4665 32.4286 11.4665H30.9422V9.98006C30.9422 9.23686 30.3476 8.49365 29.4558 8.49365C28.7126 8.49365 27.9694 9.08821 27.9694 9.98006V11.4665H24.9966V9.98006C24.9966 9.23686 24.402 8.49365 23.5102 8.49365C22.6183 8.49365 22.0238 9.08821 22.0238 9.98006V11.4665H19.051V9.98006C19.051 9.23686 18.4564 8.49365 17.5646 8.49365C16.6727 8.49365 16.0781 9.08821 16.0781 9.98006V11.4665H14.5917C12.9567 11.4665 11.6189 12.8042 11.6189 14.4393V15.9257H10.1325C9.24068 15.9257 8.64612 16.5202 8.64612 17.4121C8.64612 18.1553 9.24068 18.8985 10.1325 18.8985H11.6189V21.8713H10.1325C9.24068 21.8713 8.64612 22.4659 8.64612 23.3577C8.64612 24.1009 9.24068 24.8441 10.1325 24.8441H11.6189V27.8169H10.1325C9.24068 27.8169 8.64612 28.4115 8.64612 29.3033C8.64612 30.0465 9.24068 30.7897 10.1325 30.7897H11.6189V32.2762C11.6189 33.9112 12.9567 35.249 14.5917 35.249H16.0781V36.7354C16.0781 37.4786 16.6727 38.2218 17.5646 38.2218C18.4564 38.2218 19.051 37.6272 19.051 36.7354V35.249H22.0238V36.7354C22.0238 37.4786 22.6183 38.2218 23.5102 38.2218C24.402 38.2218 24.9966 37.6272 24.9966 36.7354V35.249H27.9694V36.7354C27.9694 37.4786 28.564 38.2218 29.4558 38.2218C30.199 38.2218 30.9422 37.6272 30.9422 36.7354V35.249H32.4286C34.0637 35.249 35.4014 33.9112 35.4014 32.2762V30.7897H36.8878C37.7797 30.7897 38.3742 30.1952 38.3742 29.3033C38.3742 28.5601 37.7797 27.8169 36.8878 27.8169H35.4014V24.8441H36.8878ZM33.4903 33.3379H13.53V13.3776H33.4903V33.3379Z" fill="#F37021"/>
</svg>
