<svg height="297mm" width="210mm" xmlns="http://www.w3.org/2000/svg" xmlns:xlink="http://www.w3.org/1999/xlink"><linearGradient id="a"><stop offset="0"/><stop offset="1" stop-opacity="0"/></linearGradient><linearGradient id="b" gradientTransform="matrix(1.4471209 0 0 1.7270427 -818.25629 -416.57418)" gradientUnits="userSpaceOnUse" x1="689.26416" x2="1054.5129" y1="592.51782" y2="592.51782"><stop offset="0" stop-color="#73d216"/><stop offset=".25568181" stop-color="#8ae234"/><stop offset=".59400827" stop-color="#73d216"/><stop offset="1" stop-color="#8ae234"/></linearGradient><linearGradient id="c" gradientUnits="userSpaceOnUse" x1="195.75793" x2="618.58582" y1="638.53125" y2="638.53125"><stop offset="0" stop-color="#fff"/><stop offset=".5" stop-color="#fff" stop-opacity=".219048"/><stop offset="1" stop-color="#fff"/></linearGradient><radialGradient id="d" cx="605.71429" cy="486.64789" gradientTransform="matrix(-.73721084 0 0 .36167675 667.01311 741.9895)" gradientUnits="userSpaceOnUse" r="117.14286" xlink:href="#a"/><radialGradient id="e" cx="605.71429" cy="486.64789" gradientTransform="matrix(.73721084 0 0 .36167675 134.40404 741.9895)" gradientUnits="userSpaceOnUse" r="117.14286" xlink:href="#a"/><linearGradient id="f" gradientTransform="matrix(.73721084 0 0 .36167675 134.25883 741.9895)" gradientUnits="userSpaceOnUse" x1="302.85715" x2="302.85715" y1="366.64789" y2="609.50507"><stop offset="0" stop-opacity="0"/><stop offset=".5"/><stop offset="1" stop-opacity="0"/></linearGradient><path d="m-64.879845 115.85568h850v850h-850z" fill="none"/><text x="-334.31387" y="437.84897"><tspan x="-334.31387" y="437.84897"/></text><path d="m168.31536 620.18287s46.44548 41.32933 85.63143 108.59986c48.44938 83.17313 56.20426 182.38061 54.29169 180.66871h71.13244s3.31603-179.77796 84.02765-307.55454c80.71164-127.7766 256.98113-316.26756 256.98113-316.26756s-128.52876 73.96227-253.9255 209.15227c-113.5695 122.43906-130.10522 224.4383-130.10522 224.4383s-2.23277-7.97557-31.20951-44.06649c-33.75127-42.03767-133.44296-79.63512-136.82411-54.97055z" fill="url(#b)" fill-rule="evenodd" stroke="#4e9a06" stroke-width="17.546619"/><path d="m222.72435 874.5976h355.96832v87.835815h-355.96832z" fill="url(#f)" opacity=".23"/><path d="m578.6927 874.60057v87.83098c37.96463.16533 91.77998-19.67846 91.77995-43.92114 0-24.24268-42.36564-43.90984-91.77995-43.90984z" fill="url(#e)" opacity=".23"/><path d="m222.72438 874.60057v87.83098c-37.96463.16533-91.77995-19.67846-91.77995-43.92114s42.36565-43.90984 91.77995-43.90984z" fill="url(#d)" opacity=".23"/><path d="m609.8125 384.375c-39.7921 32.03962-85.59727 72.79652-131.0625 121.8125-55.48297 59.81608-87.00457 114.31012-104.65625 153.59375s-25.20497 80.06299-25.20497 80.06299c-1.28288 7.71564.24055 22.48712-7.56725 22.9508-7.80781.46369-18.88447-31.44172-21.07153-38.95129.0898.24032.63964 1.71025.34375 1.125-.32074-.6344-1.23941-2.30386-3.09375-5.1875-3.70868-5.76728-11.19414-16.3847-25.4375-34.125-13.36014-16.64025-45.37327-36.65417-72.84375-47.40625-5.14012-2.01187-10.03152-3.59334-14.6875-4.96875 17.65158 19.4879 41.7841 49.13904 63.875 87.0625 25.48692 43.75345 39.91663 90.81614 47.9375 126.96875 4.01043 18.0763 6.40053 33.42139 7.6875 44.375.0491.41749.0478.59574.0937 1h39.28125c2.57616-46.20255 15.90872-189.00278 85.8438-299.71875 41.34921-65.46096 106.13414-145.22035 160.5625-208.59375z" fill="none" stroke="url(#c)" stroke-linecap="round" stroke-width="17.547001"/></svg>