<?xml version="1.0" standalone="no"?>
<!DOCTYPE svg PUBLIC "-//W3C//DTD SVG 20010904//EN"
 "http://www.w3.org/TR/2001/REC-SVG-20010904/DTD/svg10.dtd">
<svg version="1.0" xmlns="http://www.w3.org/2000/svg"
 width="269.000000pt" height="269.000000pt" viewBox="0 0 269.000000 269.000000"
 preserveAspectRatio="xMidYMid meet">
<metadata>
Created by potrace 1.14, written by Peter Selinger 2001-2017
</metadata>
<g transform="translate(0.000000,269.000000) scale(0.100000,-0.100000)"
fill="#000000" stroke="none">
<path d="M460 2249 c-33 -13 -78 -56 -98 -94 -13 -26 -16 -77 -17 -345 l0
-315 -75 -40 c-176 -95 -253 -173 -259 -262 -6 -102 87 -174 274 -207 l60 -11
0 -295 c1 -250 4 -300 17 -325 21 -39 66 -81 101 -94 28 -11 707 -16 707 -6 0
3 13 65 29 138 17 72 32 143 35 157 2 14 10 48 16 75 14 61 19 82 25 118 3 16
15 68 26 115 12 48 23 101 26 117 5 32 19 52 29 42 3 -3 13 -37 21 -74 8 -37
16 -77 19 -88 2 -11 6 -31 9 -45 8 -44 115 -524 121 -542 5 -17 30 -18 345
-18 371 0 381 1 436 59 16 16 34 45 40 63 11 36 15 706 4 712 -3 2 -84 21
-179 43 -94 21 -172 40 -172 43 1 3 62 25 137 50 162 53 343 139 431 204 161
120 165 265 9 339 -30 14 -91 33 -136 43 -76 16 -81 19 -82 43 0 14 -1 82 -3
151 -2 146 -16 187 -79 228 l-41 27 -355 0 -355 0 -8 -36 c-4 -20 -9 -47 -12
-60 -3 -13 -7 -33 -10 -44 -2 -11 -12 -54 -21 -95 -9 -41 -18 -79 -19 -85 -1
-5 -8 -41 -16 -79 -16 -76 -19 -79 -107 -91 -49 -6 -52 -5 -58 17 -3 12 -14
64 -26 113 -11 50 -23 101 -25 115 -3 14 -11 52 -20 85 -8 33 -16 71 -19 85
-3 14 -7 37 -11 53 l-6 27 -341 -1 c-202 0 -352 -4 -367 -10z m1905 -549 c33
-7 65 -13 70 -14 73 -16 135 -52 135 -78 0 -18 -85 -93 -150 -132 -50 -29 -60
-32 -61 -18 -1 9 -1 56 -1 104 0 55 -5 88 -12 91 -21 7 -131 11 -301 11 -193
0 -308 -9 -535 -40 -118 -16 -132 -22 -136 -50 -2 -9 -8 -39 -15 -68 l-13 -51
-13 64 c-7 36 -15 67 -18 69 -2 3 -33 -1 -67 -8 -35 -7 -72 -14 -83 -16 -11
-2 -31 -5 -45 -8 -131 -23 -484 -122 -539 -151 -23 -12 -22 -13 25 -20 27 -4
75 -13 106 -21 32 -9 68 -17 80 -19 13 -3 65 -14 116 -26 52 -11 99 -22 105
-23 93 -19 137 -29 135 -32 -3 -2 -491 -112 -571 -128 -36 -8 -61 -13 -130
-30 -32 -8 -66 -12 -75 -11 -123 22 -185 41 -214 65 l-32 27 20 25 c72 96 315
215 619 303 141 40 423 107 509 121 21 3 48 8 60 10 75 16 358 53 446 59 58 4
107 9 109 11 9 8 424 -5 476 -16z m-72 -289 c-82 -39 -231 -92 -378 -134 -193
-56 -190 -55 -285 -34 -77 18 -82 21 -55 28 25 7 278 63 338 75 10 2 26 5 35
8 9 3 31 8 47 11 17 3 95 20 175 39 182 42 200 43 123 7z"/>
</g>
</svg>
